<?xml version="1.0" encoding="UTF-8"?>
<svg version="1.1" xmlns="http://www.w3.org/2000/svg" width="1536" height="1024">
<path d="M0 0 C506.88 0 1013.76 0 1536 0 C1536 337.92 1536 675.84 1536 1024 C1029.12 1024 522.24 1024 0 1024 C0 686.08 0 348.16 0 0 Z " fill="#FDFDFD" transform="translate(0,0)"/>
<path d="M0 0 C19.11120182 1.80235725 37.83598334 6.9384786 56 13 C57.11890625 13.34933594 58.2378125 13.69867188 59.390625 14.05859375 C60.96070313 14.55552734 60.96070313 14.55552734 62.5625 15.0625 C63.45066406 15.34222656 64.33882812 15.62195313 65.25390625 15.91015625 C68.72879892 17.28923883 71.76594055 19.12285539 75 21 C75.52837945 50.15841684 75.98975905 78.88309404 67 107 C66.34 107 65.68 107 65 107 C65 92.15 65 77.3 65 62 C57.74 62 50.48 62 43 62 C43.03665771 64.38677979 43.07331543 66.77355957 43.11108398 69.23266602 C43.22723406 77.13136467 43.30445666 85.03010172 43.3626852 92.92942905 C43.39916918 97.71749216 43.44862947 102.50467806 43.52807617 107.29223633 C43.60431105 111.91534439 43.64602665 116.5376105 43.6641407 121.16129875 C43.67704372 122.92240589 43.70224177 124.68346854 43.7401104 126.44421577 C44.02434852 140.21169327 44.02434852 140.21169327 41.46536255 144.6791687 C39.71910549 146.49425158 38.22679817 147.83334432 36 149 C35.34 149 34.68 149 34 149 C34 130.52 34 112.04 34 93 C26.74 93 19.48 93 12 93 C12.04713135 95.33143066 12.0942627 97.66286133 12.14282227 100.06494141 C12.29208135 107.77589792 12.3914121 115.48691901 12.46630955 123.19893837 C12.51324289 127.87412669 12.5768726 132.54783282 12.67895508 137.22216797 C12.77689373 141.73510615 12.83058665 146.24662102 12.85389519 150.76054001 C12.87049985 152.48070056 12.90292864 154.20078482 12.95157051 155.92033768 C13.01714114 158.33482003 13.02589601 160.74345911 13.02172852 163.15869141 C13.07026474 164.22037033 13.07026474 164.22037033 13.11978149 165.30349731 C13.08229065 167.31729126 13.08229065 167.31729126 12 171 C9.03 172.98 6.06 174.96 3 177 C3 157.53 3 138.06 3 118 C-4.59 118 -12.18 118 -20 118 C-20 142.75 -20 167.5 -20 193 C-23.63 194.98 -27.26 196.96 -31 199 C-32.10214844 199.63808594 -33.20429688 200.27617188 -34.33984375 200.93359375 C-35.19707031 201.42988281 -36.05429687 201.92617188 -36.9375 202.4375 C-38.25041016 203.20900391 -38.25041016 203.20900391 -39.58984375 203.99609375 C-42 205 -42 205 -43.875 204.91015625 C-47.09229122 203.53216203 -50.07252467 201.80546042 -53.0625 200 C-53.72064697 199.60498291 -54.37879395 199.20996582 -55.05688477 198.80297852 C-61.16508646 195.05154871 -66.6144749 190.73612706 -72 186 C-70.36825366 182.12460244 -67.74498155 179.24207067 -65 176.125 C-50.73056165 159.52709541 -39.34891966 140.56653878 -27.75 122.0625 C-14.92499825 101.63749721 -0.95832168 82.38407696 17.25 66.375 C21.48684789 62.600764 24.95256527 58.72222361 28.3125 54.1875 C31.82497891 49.44886927 35.05025397 45.29983069 40 42 C44.47559436 41.77622028 48.27010784 44.73281065 52 47 C51.835 46.14277344 51.67 45.28554688 51.5 44.40234375 C50.17223422 35.20134179 50.17223422 35.20134179 52.64453125 31.61328125 C55.28017426 29.34805293 57.89501147 27.55249426 61 26 C60.04738281 25.97164063 59.09476563 25.94328125 58.11328125 25.9140625 C47.99076486 25.14421028 47.99076486 25.14421028 44.95703125 21.640625 C43.74188423 19.11768046 42.76482584 16.69178965 42 14 C40.03044748 16.49366313 38.50245416 18.80344684 37.3125 21.75 C36.879375 22.8225 36.44625 23.895 36 25 C32.04 25.33 28.08 25.66 24 26 C26.97 28.31 29.94 30.62 33 33 C31.47789482 40.61052591 28.23607262 44.50496288 22 49 C12.29005762 55.40359592 2.17226814 59.41658433 -8.76708984 63.21386719 C-11.99550462 64.3504838 -15.18334204 65.57631991 -18.375 66.8125 C-19.35210937 67.19019531 -20.32921875 67.56789063 -21.3359375 67.95703125 C-22.21507812 68.30121094 -23.09421875 68.64539063 -24 69 C-24.88300781 69.32484375 -25.76601563 69.6496875 -26.67578125 69.984375 C-29.2489382 70.97151079 -29.2489382 70.97151079 -31.8125 73.4375 C-37.87384495 78.67273303 -45.26988424 79.50042926 -52.9375 80.375 C-68.0731548 82.36439454 -80.77924435 85.37940512 -93 95 C-93.72445312 95.54398437 -94.44890625 96.08796875 -95.1953125 96.6484375 C-104.7810666 104.35463198 -110.99880523 114.93853392 -116 126 C-123.71154291 119.60292463 -124.26694693 104.26516833 -126 95 C-126.1561377 94.27006836 -126.31227539 93.54013672 -126.47314453 92.78808594 C-131.62540142 68.50801382 -131.4154118 43.68185188 -131 19 C-122.24893339 15.6385095 -113.55162206 12.34963539 -104.5 9.875 C-103.61691162 9.62911133 -102.73382324 9.38322266 -101.82397461 9.12988281 C-99.21862049 8.40976868 -96.61011795 7.70262601 -94 7 C-93.25121582 6.79600586 -92.50243164 6.59201172 -91.73095703 6.38183594 C-80.29045506 3.28669441 -68.90405282 0.81986301 -57 1 C-56.32923511 3.76989964 -55.66323683 6.54079742 -55 9.3125 C-54.71382812 10.49102539 -54.71382812 10.49102539 -54.421875 11.69335938 C-54.24140625 12.45068359 -54.0609375 13.20800781 -53.875 13.98828125 C-53.70742188 14.68477783 -53.53984375 15.38127441 -53.3671875 16.09887695 C-53 18 -53 18 -53 21 C-37.16 21 -21.32 21 -5 21 C-4.34 17.7 -3.68 14.4 -3 11 C-2.48435369 8.95160686 -1.94840494 6.90798114 -1.375 4.875 C-1.11460937 3.94429688 -0.85421875 3.01359375 -0.5859375 2.0546875 C-0.39257812 1.37664062 -0.19921875 0.69859375 0 0 Z " fill="#C38A18" transform="translate(442,399)"/>
<path d="M0 0 C3.40087545 1.54225747 6.16720056 3.54148305 9.125 5.8125 C21.02742251 14.85288248 33.1928175 23.51338923 45.55004883 31.91967773 C53.76998595 37.51182786 61.9270546 43.19259912 70.08203125 48.87890625 C74.05181375 51.64664098 78.02873086 54.40364868 82.01171875 57.15234375 C91.29183232 63.5644042 100.51202988 70.01650008 109.4934082 76.8425293 C113.6480518 79.999972 117.85950098 83.05684297 122.125 86.0625 C127.13918743 89.60739713 132.03765108 93.27966606 136.875 97.0625 C137.79563232 97.77901733 137.79563232 97.77901733 138.73486328 98.51000977 C140.17685427 99.64810666 141.59158166 100.82061018 143 102 C143 102.33 143 102.66 143 103 C132.24535446 104.66233083 124.4682927 99.8727062 115.3125 95 C113.86109857 94.24662804 112.40862781 93.49531251 110.95507812 92.74609375 C108.05450881 91.24813099 105.16002966 89.73924454 102.26928711 88.22241211 C98.17018604 86.07858289 94.04075527 84.00024209 89.8984375 81.94140625 C81.9988094 78.01224617 74.15052111 73.98793021 66.3125 69.9375 C65.61188446 69.575495 64.91126892 69.21348999 64.18942261 68.84051514 C63.47392242 68.47081604 62.75842224 68.10111694 62.02124023 67.72021484 C60.5610374 66.96581596 59.10083232 66.21142145 57.640625 65.45703125 C56.91819107 65.0836261 56.19575714 64.71022095 55.45143127 64.32550049 C51.301759 62.18235621 47.1461677 60.05144807 42.98324585 57.93415833 C39.84065777 56.33567352 36.70100886 54.73147698 33.5625 53.125 C32.96322693 52.81867645 32.36395386 52.51235291 31.746521 52.19674683 C23.3271708 47.880276 15.15224324 43.30553025 7.27368164 38.05908203 C3.91791269 35.6569795 3.91791269 35.6569795 -0.00488281 35.27880859 C-3.2944922 36.46793073 -6.20411201 38.3258657 -9.1875 40.125 C-9.92234619 40.56166992 -10.65719238 40.99833984 -11.41430664 41.44824219 C-15.88089207 44.10832975 -20.32518736 46.80436092 -24.765625 49.5078125 C-38.63923417 57.93302265 -52.69573802 65.86937512 -67.05224609 73.44238281 C-69.72442867 74.85438586 -72.38900746 76.27944015 -75.05078125 77.7109375 C-87.17786202 84.20511813 -99.55276757 90.14662724 -112 96 C-112.27444966 142.35243578 -112.18191042 190.38895577 -89 232 C-88.65211426 232.63631348 -88.30422852 233.27262695 -87.94580078 233.92822266 C-83.20890171 242.51967849 -77.82388647 249.98246177 -71.28515625 257.29296875 C-69 260 -69 260 -67.87109375 262.30078125 C-67.06148242 264.36836974 -67.06148242 264.36836974 -64 265 C-63.34 265.825 -62.68 266.65 -62 267.5 C-58.03907382 272.43357965 -52.98301902 276.1554069 -48 280 C-47.42926758 280.44037598 -46.85853516 280.88075195 -46.27050781 281.33447266 C-39.39495524 286.59500022 -32.36911335 291.57707756 -25 296.125 C-24.40155273 296.50333984 -23.80310547 296.88167969 -23.18652344 297.27148438 C-19.11895306 299.71066393 -15.75225842 300.93684706 -11 301 C-8.28642206 299.99887416 -6.06061289 299.00640161 -3.5625 297.625 C-2.87293213 297.26067871 -2.18336426 296.89635742 -1.47290039 296.52099609 C0.69568967 295.36648075 2.84796522 294.18503687 5 293 C6.35657891 292.27047633 7.71334588 291.54130224 9.0703125 290.8125 C28.8180549 280.07342993 47.13706225 266.83474936 64 252 C64.52223145 251.54625 65.04446289 251.0925 65.58251953 250.625 C72.82136347 244.31593639 79.17973916 237.66747129 85 230 C85.78890625 229.01128906 86.5778125 228.02257812 87.390625 227.00390625 C111.26195496 196.24343975 115.5643715 157.50101736 116.5625 119.8125 C116.60580621 118.27277761 116.64942381 116.73306394 116.69335938 115.19335938 C116.79915736 111.46233316 116.90076068 107.73120711 117 104 C119.31 104 121.62 104 124 104 C124.93489423 182.13468637 124.93489423 182.13468637 116 215 C115.68160156 216.2375 115.36320312 217.475 115.03515625 218.75 C108.70161966 241.36589031 95.11311958 261.27361034 79.375 278.375 C78.60397949 279.21333374 78.60397949 279.21333374 77.81738281 280.06860352 C64.91819931 293.78979382 49.08797504 305.31197015 33 315 C32.3311377 315.40702148 31.66227539 315.81404297 30.97314453 316.23339844 C23.5170321 320.75879449 15.98255785 325.14924832 8.25 329.1875 C7.16203125 329.75855469 6.0740625 330.32960938 4.953125 330.91796875 C0.26914447 332.63418913 -2.00998323 331.44807757 -6.4609375 329.43359375 C-7.76915975 328.77520629 -9.07367899 328.10942495 -10.375 327.4375 C-11.07616943 327.07962402 -11.77733887 326.72174805 -12.49975586 326.35302734 C-13.95675938 325.60662567 -15.41207437 324.85691917 -16.86572266 324.10400391 C-18.85743071 323.07374724 -20.85575045 322.05755831 -22.85546875 321.04296875 C-32.02641272 316.33249307 -40.54606579 310.8898354 -49 305 C-50.41539062 304.03126953 -50.41539062 304.03126953 -51.859375 303.04296875 C-89.49578204 276.59726854 -113.45203668 241.00293503 -121.6159668 195.57226562 C-122.20838054 191.78459068 -122.72540267 187.99283895 -123.1875 184.1875 C-123.27471313 183.48152679 -123.36192627 182.77555359 -123.45178223 182.04818726 C-126.3583324 157.5316448 -125.31436411 132.63392126 -125 108 C-134.9 108 -144.8 108 -155 108 C-151.41185868 104.41185868 -148.87503899 102.05863382 -144.76171875 99.44140625 C-143.28348633 98.49104492 -143.28348633 98.49104492 -141.77539062 97.52148438 C-140.75638672 96.87501953 -139.73738281 96.22855469 -138.6875 95.5625 C-132.46078254 91.59062712 -126.3176336 87.65027533 -120.53442383 83.04663086 C-119 82 -119 82 -117 82 C-117 65.5 -117 49 -117 32 C-105.12 32 -93.24 32 -81 32 C-81 39.92 -81 47.84 -81 56 C-72.66439264 50.33667034 -64.33114413 44.66989258 -56 39 C-55.08428223 38.37706055 -54.16856445 37.75412109 -53.22509766 37.11230469 C-44.24342611 30.9991251 -35.30606085 24.83256224 -26.44726562 18.54248047 C-20.01147922 13.98253473 -13.50284171 9.53170386 -6.97851562 5.09960938 C-6.21216797 4.57818359 -5.44582031 4.05675781 -4.65625 3.51953125 C-3.63241211 2.82500854 -3.63241211 2.82500854 -2.58789062 2.11645508 C-1.03594774 1.09319283 -1.03594774 1.09319283 0 0 Z " fill="#134B21" transform="translate(410,314)"/>
<path d="M0 0 C5.71924161 0.42364753 10.26389672 1.71141833 15.53515625 3.953125 C17.81515392 4.92149168 20.10715167 5.78692978 22.4375 6.625 C26 8 26 8 29 10 C29.31878957 12.94288041 29.44324021 15.67030891 29.43359375 18.6171875 C29.44046707 19.49349823 29.44734039 20.36980896 29.454422 21.27267456 C29.46822874 24.14046993 29.4554525 27.00723717 29.4375 29.875 C29.43512329 30.84796021 29.43274658 31.82092041 29.43029785 32.82336426 C29.34787721 54.30501824 27.58142648 75.41553845 21 96 C20.34 96 19.68 96 19 96 C19 81.15 19 66.3 19 51 C11.74 51 4.48 51 -3 51 C-2.96334229 53.38677979 -2.92668457 55.77355957 -2.88891602 58.23266602 C-2.77276594 66.13136467 -2.69554334 74.03010172 -2.6373148 81.92942905 C-2.60083082 86.71749216 -2.55137053 91.50467806 -2.47192383 96.29223633 C-2.39568895 100.91534439 -2.35397335 105.5376105 -2.3358593 110.16129875 C-2.32295628 111.92240589 -2.29775823 113.68346854 -2.2598896 115.44421577 C-1.97565148 129.21169327 -1.97565148 129.21169327 -4.53463745 133.6791687 C-6.28089451 135.49425158 -7.77320183 136.83334432 -10 138 C-10.66 138 -11.32 138 -12 138 C-12 119.52 -12 101.04 -12 82 C-19.26 82 -26.52 82 -34 82 C-33.92930298 85.497146 -33.92930298 85.497146 -33.85717773 89.06494141 C-33.70791865 96.77589792 -33.6085879 104.48691901 -33.53369045 112.19893837 C-33.48675711 116.87412669 -33.4231274 121.54783282 -33.32104492 126.22216797 C-33.22310627 130.73510615 -33.16941335 135.24662102 -33.14610481 139.76054001 C-33.12950015 141.48070056 -33.09707136 143.20078482 -33.04842949 144.92033768 C-32.98285886 147.33482003 -32.97410399 149.74345911 -32.97827148 152.15869141 C-32.92973526 153.22037033 -32.92973526 153.22037033 -32.88021851 154.30349731 C-32.91770935 156.31729126 -32.91770935 156.31729126 -34 160 C-36.97 161.98 -39.94 163.96 -43 166 C-43 146.53 -43 127.06 -43 107 C-50.59 107 -58.18 107 -66 107 C-66 131.75 -66 156.5 -66 182 C-69.63 183.98 -73.26 185.96 -77 188 C-78.65322266 188.95712891 -78.65322266 188.95712891 -80.33984375 189.93359375 C-81.19707031 190.42988281 -82.05429687 190.92617188 -82.9375 191.4375 C-84.25041016 192.20900391 -84.25041016 192.20900391 -85.58984375 192.99609375 C-88 194 -88 194 -89.875 193.91015625 C-93.09229122 192.53216203 -96.07252467 190.80546042 -99.0625 189 C-99.72064697 188.60498291 -100.37879395 188.20996582 -101.05688477 187.80297852 C-107.16508646 184.05154871 -112.6144749 179.73612706 -118 175 C-116.36825366 171.12460244 -113.74498155 168.24207067 -111 165.125 C-96.73056165 148.52709541 -85.34891966 129.56653878 -73.75 111.0625 C-60.92499825 90.63749721 -46.95832168 71.38407696 -28.75 55.375 C-24.51315211 51.600764 -21.04743473 47.72222361 -17.6875 43.1875 C-14.17502109 38.44886927 -10.94974603 34.29983069 -6 31 C-1.52440564 30.77622028 2.27010784 33.73281065 6 36 C5.835 35.14277344 5.67 34.28554688 5.5 33.40234375 C4.17223422 24.20134179 4.17223422 24.20134179 6.64453125 20.61328125 C9.28017426 18.34805293 11.89501147 16.55249426 15 15 C10.38 14.34 5.76 13.68 1 13 C1.66 12.67 2.32 12.34 3 12 C2.7834375 11.38511719 2.566875 10.77023437 2.34375 10.13671875 C2.0653125 9.32847656 1.786875 8.52023437 1.5 7.6875 C1.2215625 6.88699219 0.943125 6.08648437 0.65625 5.26171875 C0 3 0 3 0 0 Z " fill="#C48C1F" transform="translate(488,410)"/>
<path d="M0 0 C2.31 0 4.62 0 7 0 C7.93489423 78.13468637 7.93489423 78.13468637 -1 111 C-1.31839844 112.2375 -1.63679687 113.475 -1.96484375 114.75 C-8.29838034 137.36589031 -21.88688042 157.27361034 -37.625 174.375 C-38.13901367 174.93388916 -38.65302734 175.49277832 -39.18261719 176.06860352 C-52.08180069 189.78979382 -67.91202496 201.31197015 -84 211 C-84.6688623 211.40702148 -85.33772461 211.81404297 -86.02685547 212.23339844 C-106.52652344 224.67542067 -106.52652344 224.67542067 -115 228 C-115.99 227.67 -116.98 227.34 -118 227 C-117.34 227 -116.68 227 -116 227 C-116 219.41 -116 211.82 -116 204 C-117.98 203.67 -119.96 203.34 -122 203 C-124.5546875 202.02734375 -124.5546875 202.02734375 -126.875 200.9375 C-127.65617187 200.57527344 -128.43734375 200.21304688 -129.2421875 199.83984375 C-129.82226562 199.56269531 -130.40234375 199.28554688 -131 199 C-127.73538327 196.82358885 -124.32815972 195.15447933 -120.8125 193.4375 C-96.22422273 181.24834376 -73.61123898 166.13222398 -53 148 C-52.47776855 147.54625 -51.95553711 147.0925 -51.41748047 146.625 C-44.17863653 140.31593639 -37.82026084 133.66747129 -32 126 C-31.21109375 125.01128906 -30.4221875 124.02257812 -29.609375 123.00390625 C-5.73804504 92.24343975 -1.4356285 53.50101736 -0.4375 15.8125 C-0.39419379 14.27277761 -0.35057619 12.73306394 -0.30664062 11.19335938 C-0.20084264 7.46233316 -0.09923932 3.73120711 0 0 Z " fill="#C38917" transform="translate(527,418)"/>
<path d="M0 0 C0 33.66 0 67.32 0 102 C-10.125 104.25 -10.125 104.25 -15 104 C-15 101.69 -15 99.38 -15 97 C-15.59167969 97.40992188 -16.18335938 97.81984375 -16.79296875 98.2421875 C-17.58316406 98.78101563 -18.37335938 99.31984375 -19.1875 99.875 C-19.96480469 100.40867187 -20.74210937 100.94234375 -21.54296875 101.4921875 C-28.11190685 105.52336414 -34.80482099 106.20023528 -42.31640625 104.46484375 C-49.80725719 101.86365642 -53.82655472 97.5203101 -57.70703125 90.70703125 C-62.04034082 81.63457345 -62.36381164 70.00318588 -59.87890625 60.32421875 C-55.9188329 49.85202479 -49.19482307 43.20113349 -39.1875 38.625 C-31.01592936 35.60780469 -24.2468575 36.643755 -16 39 C-16 26.79 -16 14.58 -16 2 C-7 0 -7 0 0 0 Z " fill="#C38A1B" transform="translate(1103,426)"/>
<path d="M0 0 C3.41336042 1.90360485 5.730193 3.83454627 8.25 6.8125 C8.25 7.4725 8.25 8.1325 8.25 8.8125 C9.22582031 8.17441406 10.20164062 7.53632813 11.20703125 6.87890625 C12.49207462 6.04409705 13.7772371 5.20947118 15.0625 4.375 C15.70509766 3.95412109 16.34769531 3.53324219 17.00976562 3.09960938 C23.29910763 -0.97379866 27.87941144 -1.80939341 35.25 -1.1875 C40.92458978 0.73971917 44.57050871 4.45351742 47.25 9.8125 C47.34072287 11.5691923 47.36754144 13.3293501 47.36352539 15.08837891 C47.36341209 16.73986435 47.36341209 16.73986435 47.36329651 18.42471313 C47.35813522 19.61744843 47.35297394 20.81018372 47.34765625 22.0390625 C47.3462413 23.25701508 47.34482635 24.47496765 47.34336853 25.72982788 C47.33775639 29.6324099 47.32520179 33.53493523 47.3125 37.4375 C47.30748657 40.07812417 47.30292339 42.71874924 47.29882812 45.359375 C47.287783 51.84377195 47.27051018 58.32812635 47.25 64.8125 C41.97 64.8125 36.69 64.8125 31.25 64.8125 C31.2406543 63.3490918 31.23130859 61.88568359 31.22167969 60.37792969 C31.1818209 54.95069895 31.11607286 49.52403753 31.04248047 44.09716797 C31.01424712 41.74795848 30.99304442 39.39865359 30.97900391 37.04931641 C30.95760776 33.67300482 30.91097263 30.29784333 30.859375 26.921875 C30.85814636 25.87070496 30.85691772 24.81953491 30.85565186 23.73651123 C30.81679188 18.10680589 30.81679188 18.10680589 28.45410156 13.14941406 C25.12584413 11.13063496 21.97099515 11.06830097 18.25 11.8125 C14.92191761 13.69663915 14.92191761 13.69663915 12.25 15.8125 C11.59 15.8125 10.93 15.8125 10.25 15.8125 C10.25 31.9825 10.25 48.1525 10.25 64.8125 C4.97 64.8125 -0.31 64.8125 -5.75 64.8125 C-5.76401855 62.6173877 -5.76401855 62.6173877 -5.77832031 60.37792969 C-5.8181791 54.95069895 -5.88392714 49.52403753 -5.95751953 44.09716797 C-5.98575288 41.74795848 -6.00695558 39.39865359 -6.02099609 37.04931641 C-6.04239224 33.67300482 -6.08902737 30.29784333 -6.140625 26.921875 C-6.14185364 25.87070496 -6.14308228 24.81953491 -6.14434814 23.73651123 C-6.18257077 18.10551822 -6.18257077 18.10551822 -8.54980469 13.14941406 C-11.85854548 11.13890978 -15.06287402 10.95824253 -18.75 11.8125 C-22.66740523 13.25300045 -22.66740523 13.25300045 -25.75 15.8125 C-26.81890823 19.49350716 -26.70402929 23.11061844 -26.65234375 26.921875 C-26.67078087 28.54479462 -26.67078087 28.54479462 -26.68959045 30.20050049 C-26.72137621 33.65518603 -26.70502585 37.10774674 -26.6875 40.5625 C-26.70060539 42.9049678 -26.71684341 45.24742033 -26.73632812 47.58984375 C-26.77723246 53.33118396 -26.77497093 59.07108357 -26.75 64.8125 C-32.03 64.8125 -37.31 64.8125 -42.75 64.8125 C-43.08 44.0225 -43.41 23.2325 -43.75 1.8125 C-38.27413817 0.24796805 -35.17372238 -0.40887642 -29.75 -0.1875 C-28.49335022 2.71850261 -27.75 4.60854584 -27.75 7.8125 C-26.83476563 7.24660156 -25.91953125 6.68070312 -24.9765625 6.09765625 C-23.77606894 5.35672663 -22.57554661 4.61584364 -21.375 3.875 C-20.77171875 3.50181641 -20.1684375 3.12863281 -19.546875 2.74414062 C-12.68315559 -1.48848634 -7.87046403 -2.49231361 0 0 Z " fill="#205929" transform="translate(642.75,464.1875)"/>
<path d="M0 0 C0 4.95 0 9.9 0 15 C-5.51303616 13.89739277 -5.51303616 13.89739277 -8.6875 11.625 C-15.62979593 7.12294719 -23.72654748 4.75757027 -32 6 C-40.26712776 8.13673456 -45.99896375 12.10735314 -50.46875 19.39453125 C-57.56546922 32.82465977 -58.19224237 49.14904793 -54.375 63.75 C-51.31864274 72.7380332 -47.32247284 78.7027351 -39.34375 83.90625 C-30.42785986 88.06699873 -19.35936016 86.79074346 -10.4375 83.5625 C-9.30183594 83.11003906 -8.16617188 82.65757812 -6.99609375 82.19140625 C-4 81 -4 81 0 80 C0 83.96 0 87.92 0 92 C-16.95553335 98.43881013 -33.66795599 101.14230457 -51.0078125 93.7109375 C-62.71994519 87.74317507 -69.43121572 78.80589501 -74.375 66.75 C-78.73436132 52.74555177 -77.47468805 34.1992455 -71.4375 20.9375 C-65.21145182 9.32757441 -55.58863615 0.32493021 -43 -4 C-28.36562425 -7.30938894 -13.69837924 -5.5911752 0 0 Z " fill="#C48C1E" transform="translate(932,434)"/>
<path d="M0 0 C4.69471718 2.96063245 8.5559261 7.16777829 10.3125 12.4375 C10.42544746 13.83329273 10.48839187 15.23349909 10.51782227 16.63354492 C10.5477401 17.89451241 10.5477401 17.89451241 10.57826233 19.18095398 C10.59497482 20.08416885 10.61168732 20.98738373 10.62890625 21.91796875 C10.64968735 22.84595779 10.67046844 23.77394684 10.69187927 24.73005676 C10.75727323 27.6949624 10.81621262 30.65995672 10.875 33.625 C10.91819487 35.6347748 10.96180947 37.64454063 11.00585938 39.65429688 C11.11294427 44.58194032 11.21424045 49.50967299 11.3125 54.4375 C13.6225 55.0975 15.9325 55.7575 18.3125 56.4375 C17.95676042 59.06997289 17.66026706 60.96801446 16.0625 63.125 C11.72831196 66.37564103 7.66057693 67.00045547 2.3125 66.4375 C-1.0625 64.6875 -1.0625 64.6875 -3.6875 62.4375 C-4.3515625 60.296875 -4.3515625 60.296875 -4.6875 58.4375 C-5.44675781 58.93121094 -6.20601562 59.42492187 -6.98828125 59.93359375 C-8.47908203 60.89458984 -8.47908203 60.89458984 -10 61.875 C-10.98613281 62.51308594 -11.97226562 63.15117188 -12.98828125 63.80859375 C-17.86719594 66.75288814 -22.13446631 66.93727303 -27.6875 66.4375 C-33.56880521 64.67310844 -36.24024552 62.3042122 -39.6875 57.4375 C-41.58852139 51.73443584 -41.64779463 45.65035284 -39.25 40.125 C-30.18674929 30.61963949 -18.55868415 26.93541815 -5.6875 26.4375 C-5.83001983 19.01578881 -5.83001983 19.01578881 -8.5625 12.25 C-13.23597237 9.53938603 -17.41251413 9.72711508 -22.6875 10.4375 C-26.43266401 11.50561537 -29.44435773 13.27540515 -32.6875 15.4375 C-33.6775 15.4375 -34.6675 15.4375 -35.6875 15.4375 C-35.6875 11.8075 -35.6875 8.1775 -35.6875 4.4375 C-24.8498029 -1.33344489 -11.97317206 -5.24255526 0 0 Z " fill="#245E2D" transform="translate(738.6875,464.5625)"/>
<path d="M0 0 C7.62077332 5.05213278 12.07362656 11.10856578 14.0625 20 C14.0625 23.96 14.0625 27.92 14.0625 32 C0.8625 32 -12.3375 32 -25.9375 32 C-23.4449172 44.66496693 -23.4449172 44.66496693 -14.9375 53 C-9.54405104 55.69672448 -0.38603202 54.68130478 5.27734375 53.10546875 C7.58197239 52.16973001 9.83092069 51.09862366 12.0625 50 C12.0625 53.63 12.0625 57.26 12.0625 61 C10.33505984 61.65043719 8.6054631 62.29514844 6.875 62.9375 C5.43060547 63.47697266 5.43060547 63.47697266 3.95703125 64.02734375 C-6.07273263 67.39766926 -18.10028294 67.6180794 -27.82421875 63.265625 C-32.64488591 60.3785711 -35.72597608 57.26988808 -38.6875 52.5 C-39.57695313 51.09234375 -39.57695313 51.09234375 -40.484375 49.65625 C-45.02264191 41.36049327 -44.47695049 27.92671781 -42.47314453 18.91064453 C-39.7357941 10.70309176 -34.00913932 4.95992887 -26.6953125 0.69140625 C-18.52043947 -3.18160736 -8.23954915 -4.1478959 0 0 Z " fill="#C38C1E" transform="translate(1022.9375,465)"/>
<path d="M0 0 C1.32 0.33 2.64 0.66 4 1 C4 25.75 4 50.5 4 76 C0.37 77.98 -3.26 79.96 -7 82 C-8.10214844 82.63808594 -9.20429688 83.27617188 -10.33984375 83.93359375 C-11.19707031 84.42988281 -12.05429687 84.92617188 -12.9375 85.4375 C-13.81277344 85.95183594 -14.68804687 86.46617187 -15.58984375 86.99609375 C-18 88 -18 88 -19.875 87.91015625 C-23.09229122 86.53216203 -26.07252467 84.80546042 -29.0625 83 C-29.72064697 82.60498291 -30.37879395 82.20996582 -31.05688477 81.80297852 C-37.16508646 78.05154871 -42.6144749 73.73612706 -48 69 C-46.36825366 65.12460244 -43.74498155 62.24207067 -41 59.125 C-26.2765615 41.99901218 -14.64884972 22.35531098 -2.5390625 3.3515625 C-1 1 -1 1 0 0 Z " fill="#174D21" transform="translate(418,516)"/>
<path d="M0 0 C5.19752091 3.01456213 8.25177981 6.10088205 10.125 11.8125 C10.36550903 14.42585754 10.36550903 14.42585754 10.35205078 17.24536133 C10.35189972 18.30608353 10.35174866 19.36680573 10.35159302 20.45967102 C10.34127045 21.5931749 10.33094788 22.72667877 10.3203125 23.89453125 C10.3174826 25.06384689 10.31465271 26.23316254 10.31173706 27.43791199 C10.30055562 31.16704608 10.27545434 34.89593868 10.25 38.625 C10.23996759 41.15559549 10.23084219 43.68619474 10.22265625 46.21679688 C10.20062288 52.41545741 10.16610662 58.61393778 10.125 64.8125 C4.515 64.8125 -1.095 64.8125 -6.875 64.8125 C-6.88901855 62.6173877 -6.88901855 62.6173877 -6.90332031 60.37792969 C-6.9431791 54.95069895 -7.00892714 49.52403753 -7.08251953 44.09716797 C-7.11075288 41.74795848 -7.13195558 39.39865359 -7.14599609 37.04931641 C-7.16739224 33.67300482 -7.21402737 30.29784333 -7.265625 26.921875 C-7.26685364 25.87070496 -7.26808228 24.81953491 -7.26934814 23.73651123 C-7.30757077 18.10551822 -7.30757077 18.10551822 -9.67480469 13.14941406 C-13.01530502 11.1196116 -16.14100355 11.0893424 -19.875 11.8125 C-22.39044228 12.95008793 -24.53766174 14.31660352 -26.875 15.8125 C-27.535 15.8125 -28.195 15.8125 -28.875 15.8125 C-28.875 31.9825 -28.875 48.1525 -28.875 64.8125 C-34.155 64.8125 -39.435 64.8125 -44.875 64.8125 C-45.205 44.0225 -45.535 23.2325 -45.875 1.8125 C-39.79829596 0.07629884 -36.80821622 -0.39568303 -30.875 -0.1875 C-30.545 2.4525 -30.215 5.0925 -29.875 7.8125 C-28.91980469 7.1628125 -27.96460938 6.513125 -26.98046875 5.84375 C-18.00003885 -0.04528581 -10.7931102 -3.91423954 0 0 Z " fill="#245D2C" transform="translate(807.875,464.1875)"/>
<path d="M0 0 C2.31 0 4.62 0 7 0 C7.02549283 7.08007025 7.04292658 14.16012852 7.05493164 21.24023438 C7.05993994 23.64551231 7.06674848 26.05078724 7.07543945 28.45605469 C7.08765912 31.92643989 7.09326349 35.3967846 7.09765625 38.8671875 C7.10281754 39.93113739 7.10797882 40.99508728 7.11329651 42.09127808 C7.11451884 58.60301775 7.11451884 58.60301775 4 66 C3.8036107 67.35017643 3.63945936 68.70526154 3.5 70.0625 C3 74 3 74 2.0390625 75.88671875 C0.76251871 78.48299766 0.34983277 80.9010034 -0.125 83.75 C-0.29257812 84.73484375 -0.46015625 85.7196875 -0.6328125 86.734375 C-0.75398437 87.48203125 -0.87515625 88.2296875 -1 89 C-1.66 89 -2.32 89 -3 89 C-3.165 90.299375 -3.33 91.59875 -3.5 92.9375 C-7.08275754 110.6508537 -18.84007746 127.15948478 -31 140 C-32.04619972 141.24620849 -33.08802421 142.4961058 -34.125 143.75 C-54.9027176 167.50281804 -82.78083711 185.08317952 -110.23242188 200.03320312 C-111.89570794 200.94295627 -113.54041361 201.8864466 -115.18359375 202.83203125 C-118.39632653 204.16435733 -119.44518638 204.12220605 -122.625 202.875 C-123.35976563 202.60429688 -124.09453125 202.33359375 -124.8515625 202.0546875 C-127.13774 200.93238218 -129.01575982 199.58918784 -131 198 C-130.10023438 197.64550781 -129.20046875 197.29101562 -128.2734375 196.92578125 C-111.49138769 190.06948324 -95.78100738 180.4563445 -81 170 C-80.14148438 169.39406006 -80.14148438 169.39406006 -79.265625 168.77587891 C-70.11804929 162.28753805 -61.41885057 155.40627404 -53 148 C-52.47776855 147.54625 -51.95553711 147.0925 -51.41748047 146.625 C-44.17863653 140.31593639 -37.82026084 133.66747129 -32 126 C-31.21109375 125.01128906 -30.4221875 124.02257812 -29.609375 123.00390625 C-5.73804504 92.24343975 -1.4356285 53.50101736 -0.4375 15.8125 C-0.39419379 14.27277761 -0.35057619 12.73306394 -0.30664062 11.19335938 C-0.20084264 7.46233316 -0.09923932 3.73120711 0 0 Z " fill="#9D6B11" transform="translate(527,418)"/>
<path d="M0 0 C4.95806589 16.70242236 1.96347766 40.37572534 -6.1875 55.5 C-7.42376075 57.69096474 -8.69771159 59.84704814 -10 62 C-13 62 -13 62 -14.59570312 60.7565918 C-18.87617652 56.32545864 -22.78200393 51.72434287 -26.5 46.8125 C-27.06243408 46.07362549 -27.62486816 45.33475098 -28.2043457 44.57348633 C-32.65454237 38.64096212 -36.54835962 32.57404738 -40 26 C-40.38671875 25.28070312 -40.7734375 24.56140625 -41.171875 23.8203125 C-42 22 -42 22 -42.0625 19.6875 C-38.66215508 11.08662755 -28.65300011 5.82151505 -20.78515625 1.89453125 C-14.0827435 -0.76396766 -7.0984057 -0.27262725 0 0 Z " fill="#C48B19" transform="translate(370,512)"/>
<path d="M0 0 C0 6.27 0 12.54 0 19 C5.61 19 11.22 19 17 19 C17 21.97 17 24.94 17 28 C11.39 28 5.78 28 0 28 C0.09347898 33.92679536 0.19956058 39.85317951 0.31738281 45.77954102 C0.35569104 47.79607952 0.39054065 49.81268678 0.421875 51.8293457 C0.46748549 54.72632442 0.52548639 57.62282896 0.5859375 60.51953125 C0.59748871 61.42274612 0.60903992 62.325961 0.62094116 63.25654602 C0.64081085 64.09719101 0.66068054 64.937836 0.68115234 65.80395508 C0.69447601 66.54341873 0.70779968 67.28288239 0.7215271 68.04475403 C0.90214412 70.32104165 0.90214412 70.32104165 3 73 C7.54854894 73.2982655 11.56151204 73.10962199 16 72 C16 74.64 16 77.28 16 80 C8.46093 84.76510067 1.8843525 86.24546998 -7 85 C-12.0019491 82.89391617 -13.90191459 80.04929506 -16.1685791 75.35058594 C-17.67847848 71.08181155 -17.48871204 66.85542449 -17.390625 62.375 C-17.38496521 61.38749756 -17.37930542 60.39999512 -17.37347412 59.38256836 C-17.35123369 56.25453482 -17.30106027 53.12768239 -17.25 50 C-17.22991907 47.86850622 -17.2116711 45.73699434 -17.1953125 43.60546875 C-17.15140973 38.40324858 -17.08462275 33.2017087 -17 28 C-19.31 28 -21.62 28 -24 28 C-24 25.03 -24 22.06 -24 19 C-21.69 19 -19.38 19 -17 19 C-17 14.38 -17 9.76 -17 5 C-4.74193548 0 -4.74193548 0 0 0 Z " fill="#C58D1F" transform="translate(1166,446)"/>
<path d="M0 0 C5.61 0 11.22 0 17 0 C17 32.34 17 64.68 17 98 C11.39 98 5.78 98 0 98 C0 65.66 0 33.32 0 0 Z " fill="#1E5728" transform="translate(568,431)"/>
<path d="M0 0 C1.30453125 -0.03738281 2.6090625 -0.07476562 3.953125 -0.11328125 C10.61539067 0.63382467 14.45408501 4.59759741 18.4921875 9.59765625 C21.56770783 13.79067931 22.25256415 17.72083129 22.1328125 22.8359375 C21.23154708 28.66657294 18.38376117 33.67873883 14.25 37.8125 C7.11170099 42.0954794 -0.1506011 42.29268203 -8.25 41.3125 C-13.82970186 38.89740517 -17.3740245 34.60429493 -20.25 29.3125 C-22.07552946 23.36719458 -22.2602651 16.812887 -19.75 11.0625 C-15.40775758 3.36204851 -8.44927523 0.15738846 0 0 Z " fill="#FCFBF8" transform="translate(392.25,431.6875)"/>
<path d="M0 0 C0.66 3.3 1.32 6.6 2 10 C2.93972656 9.04287109 2.93972656 9.04287109 3.8984375 8.06640625 C4.71570313 7.24011719 5.53296875 6.41382813 6.375 5.5625 C7.18710937 4.73878906 7.99921875 3.91507812 8.8359375 3.06640625 C11.69488601 0.33647166 13.15791588 -0.13912531 17 -0.125 C18.051875 -0.12886719 18.051875 -0.12886719 19.125 -0.1328125 C21 0 21 0 23 1 C22.67 5.95 22.34 10.9 22 16 C20.14375 15.9175 18.2875 15.835 16.375 15.75 C10.81379823 15.73030271 8.1247309 16.32118596 4 20 C2.44341518 21.55658482 2.83690601 23.07867736 2.79467773 25.24438477 C2.77473251 26.14524307 2.75478729 27.04610138 2.73423767 27.97425842 C2.71752518 28.95341721 2.70081268 29.93257599 2.68359375 30.94140625 C2.66281265 31.93881332 2.64203156 32.9362204 2.62062073 33.96385193 C2.55501363 37.16332843 2.49618866 40.36288982 2.4375 43.5625 C2.39432538 45.72592039 2.35071145 47.88933206 2.30664062 50.05273438 C2.19932091 55.36840164 2.09808531 60.68415464 2 66 C-3.28 66 -8.56 66 -14 66 C-14.33 45.21 -14.66 24.42 -15 3 C-4 0 -4 0 0 0 Z " fill="#C38B1C" transform="translate(955,463)"/>
<path d="M0 0 C0.17328414 5.74732084 0.30017827 11.49311633 0.38452148 17.24243164 C0.41968431 19.19712818 0.46742524 21.15164113 0.52807617 23.10571289 C0.61318489 25.91859194 0.65272762 28.72903545 0.68359375 31.54296875 C0.71972275 32.41398727 0.75585175 33.2850058 0.79307556 34.18241882 C0.79689732 40.11309402 0.79689732 40.11309402 -1.5037384 42.67358398 C-6.10963719 46.08263335 -9.70387833 46.77008779 -15.41015625 46.48046875 C-19.67867561 45.68857149 -21.17383008 44.32074965 -24 41 C-27.1035845 35.19570014 -27.54543271 30.21524883 -27.5 23.6875 C-27.49500488 22.75558838 -27.49000977 21.82367676 -27.48486328 20.86352539 C-27.26594522 12.25098707 -25.51120611 6.59684528 -19.4375 0.375 C-13.21018475 -2.1159261 -6.42417162 -1.70789791 0 0 Z " fill="#FCFBF7" transform="translate(1087,474)"/>
<path d="M0 0 C0 22.11 0 44.22 0 67 C-5.61 67 -11.22 67 -17 67 C-17 45.55 -17 24.1 -17 2 C-3 0 -3 0 0 0 Z " fill="#2C6133" transform="translate(847,463)"/>
<path d="M0 0 C0 21.45 0 42.9 0 65 C-5.28 65 -10.56 65 -16 65 C-16 44.21 -16 23.42 -16 2 C-9 0 -9 0 0 0 Z " fill="#C38919" transform="translate(1134,464)"/>
<path d="M0 0 C2.70894767 -0.08144943 5.41541263 -0.14070614 8.125 -0.1875 C8.88554688 -0.21263672 9.64609375 -0.23777344 10.4296875 -0.26367188 C15.39053617 -0.32782078 18.68639296 0.27769312 23 3 C26.3886772 6.72754492 26.52009603 10.53312245 26.33984375 15.37109375 C25.57393616 21.29587318 23.52689181 26.30016929 18.75 30.0625 C12.57881846 33.50140269 4.8168408 32.37227893 -2 32 C-2.14374652 24.7268256 -1.71487802 17.61072482 -1 10.375 C-0.90460937 9.37082031 -0.80921875 8.36664062 -0.7109375 7.33203125 C-0.47813335 4.88758764 -0.2410936 2.4436375 0 0 Z " fill="#F6F6F6" transform="translate(906,559)"/>
<path d="M0 0 C2.125 1 2.125 1 3.125 3 C2.403125 3.20625 1.68125 3.4125 0.9375 3.625 C-2.65783726 5.38272044 -4.52920459 7.87227278 -6.875 11 C-17.07421025 24.33164583 -17.07421025 24.33164583 -21.875 29 C-22.535 29 -23.195 29 -23.875 29 C-24.14127197 29.59441895 -24.40754395 30.18883789 -24.68188477 30.80126953 C-25.90254229 33.05075626 -27.11441494 34.42911274 -28.96484375 36.1796875 C-29.88608032 37.06744873 -29.88608032 37.06744873 -30.82592773 37.97314453 C-31.48149658 38.60075684 -32.13706543 39.22836914 -32.8125 39.875 C-42.91029993 49.77575199 -51.22366897 60.20096452 -58.12109375 72.55078125 C-59.875 75 -59.875 75 -61.91015625 75.98046875 C-63.875 76 -63.875 76 -66.875 74 C-54.70962579 55.91347525 -42.07467994 38.83784818 -25.625 24.375 C-21.38815211 20.600764 -17.92243473 16.72222361 -14.5625 12.1875 C-5.52859567 0 -5.52859567 0 0 0 Z " fill="#9D6B14" transform="translate(484.875,441)"/>
<path d="M0 0 C1.65 0 3.3 0 5 0 C5.25029744 6.25743595 4.45427485 12.11734585 3.51171875 18.30078125 C2.74425063 23.84881412 2.35270985 29.41233341 2 35 C0.68 35 -0.64 35 -2 35 C-2 34.34 -2 33.68 -2 33 C-2.845625 33.515625 -3.69125 34.03125 -4.5625 34.5625 C-8.6850174 36.28646182 -10.74194939 36.28544924 -15 35 C-17.73457504 32.08900077 -17.98878366 30.09934475 -18.4375 26.125 C-18.2286273 20.86339733 -16.0640328 16.92168571 -12.1875 13.3125 C-9.499572 11.6997432 -7.85729871 11.68984347 -4.75 11.8125 C-3.1825 11.874375 -1.615 11.93625 0 12 C0 8.04 0 4.08 0 0 Z " fill="#595959" transform="translate(769,556)"/>
<path d="M0 0 C2.6875 1.3125 2.6875 1.3125 4 4 C4.77898911 9.36916148 4.69526349 13.60947302 2.25 18.5 C-1.27049278 22.41165865 -2.5555969 23.81658373 -7.9375 24.5 C-11.49002984 24.38732648 -11.99605669 24.00327211 -14.9375 21.5625 C-15.618125 20.716875 -16.29875 19.87125 -17 19 C-17.33 18.67 -17.66 18.34 -18 18 C-18.85273785 11.48564203 -17.79413936 7.3117951 -14 2 C-9.52689335 -0.9820711 -5.23992847 -0.58831532 0 0 Z " fill="#636363" transform="translate(831,568)"/>
<path d="M0 0 C2.47134062 4.32484609 2.10571551 8.77206504 1.5 13.625 C0.04624292 16.94787333 -1.76195362 19.27169082 -4.5 21.625 C-7.4919179 22.5606747 -10.37393122 22.82243592 -13.5 22.625 C-16.42143417 20.85996686 -17.97923817 19.66652365 -19.5 16.625 C-19.99893401 12.26289121 -20.50145931 7.66397116 -18.5234375 3.63671875 C-13.29757293 -2.82347579 -7.26056697 -3.99331183 0 0 Z " fill="#6C6B6B" transform="translate(1044.5,569.375)"/>
<path d="M0 0 C2.70894767 -0.08144943 5.41541263 -0.14070614 8.125 -0.1875 C8.88554688 -0.21263672 9.64609375 -0.23777344 10.4296875 -0.26367188 C15.39053617 -0.32782078 18.68639296 0.27769312 23 3 C26.3886772 6.72754492 26.52009603 10.53312245 26.33984375 15.37109375 C25.57393616 21.29587318 23.52689181 26.30016929 18.75 30.0625 C12.57881846 33.50140269 4.8168408 32.37227893 -2 32 C-2.14374652 24.7268256 -1.71487802 17.61072482 -1 10.375 C-0.90460937 9.37082031 -0.80921875 8.36664062 -0.7109375 7.33203125 C-0.47813335 4.88758764 -0.2410936 2.4436375 0 0 Z M5 3 C4.66205529 6.02038089 4.32951567 9.04119756 4 12.0625 C3.90460937 12.91005859 3.80921875 13.75761719 3.7109375 14.63085938 C3.18943842 19.45472589 2.89467273 24.14836264 3 29 C8.53678576 29.28638547 12.30136305 29.31040331 17 26 C20.73080373 21.18922676 21.6385565 17.37621607 21.3984375 11.30859375 C20.82835978 8.00549639 19.44639482 6.23053645 17 4 C14.47524538 2.73762269 12.68799534 2.90143596 9.875 2.9375 C8.96492187 2.94652344 8.05484375 2.95554687 7.1171875 2.96484375 C6.06917969 2.98224609 6.06917969 2.98224609 5 3 Z " fill="#5F5E5F" transform="translate(906,559)"/>
<path d="M0 0 C1.96630859 1.09692383 1.96630859 1.09692383 4 3 C4.51416016 5.8972168 4.51416016 5.8972168 4.5390625 9.44921875 C4.56073486 10.76019531 4.58240723 12.07117188 4.60473633 13.421875 C4.60776764 14.11732422 4.61079895 14.81277344 4.61392212 15.52929688 C4.63266339 19.1804879 4.72149951 22.83017887 4.80078125 26.48046875 C4.81503647 27.21180023 4.82929169 27.94313171 4.84397888 28.69662476 C5.14481203 43.21078253 6.60511848 57.55114724 8.9375 71.875 C9.09516846 72.84373047 9.25283691 73.81246094 9.4152832 74.81054688 C10.4955578 81.03552771 12.04779462 86.99233492 14 93 C14.99 92.505 14.99 92.505 16 92 C15.25 97.75 15.25 97.75 13 100 C9.78770464 93.49825807 7.8688033 87.14332417 6.375 80.0625 C6.17132813 79.13759766 5.96765625 78.21269531 5.7578125 77.25976562 C5.15649879 74.5095263 4.57482622 71.7558868 4 69 C3.81743652 68.13842285 3.63487305 67.2768457 3.44677734 66.38916016 C-1.08272588 44.52535342 -0.22338425 22.20611237 0 0 Z " fill="#8E6114" transform="translate(312,425)"/>
<path d="M0 0 C6.27 0 12.54 0 19 0 C19 5.94 19 11.88 19 18 C12.73 18 6.46 18 0 18 C0 12.06 0 6.12 0 0 Z " fill="#195227" transform="translate(393,378)"/>
<path d="M0 0 C21.45 0 42.9 0 65 0 C65 1.65 65 3.3 65 5 C43.55 5 22.1 5 0 5 C0 3.35 0 1.7 0 0 Z " fill="#A1A1A2" transform="translate(543,571)"/>
<path d="M0 0 C6.27 0 12.54 0 19 0 C19 5.61 19 11.22 19 17 C12.73 17 6.46 17 0 17 C0 11.39 0 5.78 0 0 Z " fill="#114920" transform="translate(393,399)"/>
<path d="M0 0 C0 5.94 0 11.88 0 18 C-9.6 22.8 -9.6 22.8 -14 22 C-16.375 20.625 -16.375 20.625 -18 18 C-18.74994818 14.49624209 -18.81082279 11.49701802 -18 8 C-15.22415028 3.89073607 -11.45725812 1.89770312 -6.75 0.625 C-3 0 -3 0 0 0 Z " fill="#F4F7F5" transform="translate(733,498)"/>
<path d="M0 0 C21.12 0 42.24 0 64 0 C64 1.65 64 3.3 64 5 C42.88 5 21.76 5 0 5 C0 3.35 0 1.7 0 0 Z " fill="#9D9D9E" transform="translate(1117,571)"/>
<path d="M0 0 C2.91269772 1.8578656 5.42832709 3.85665419 7 7 C7.59873168 12.26883876 6.25400021 14.8846468 3 19 C-0.50580076 20.75290038 -4.18379058 20.67770616 -8 20 C-11.68158609 16.9946236 -13.26690257 14.73982381 -13.75 10 C-13.52191111 6.51158171 -12.39912456 4.87828625 -9.875 2.5 C-6.48633495 0.01134257 -4.24074621 -0.99251507 0 0 Z " fill="#C68F22" transform="translate(1130,429)"/>
<path d="M0 0 C3.0625 1.9375 3.0625 1.9375 5 5 C6.03945854 9.75058323 5.669717 12.94141507 3.0625 17.0625 C-1.04811899 19.66309569 -4.2594664 20.05631455 -9 19 C-12.66304688 16.48165527 -13.75360451 14.79716189 -15.0625 10.5625 C-14.98541095 6.16842411 -13.78058336 4.33670003 -11 1 C-7.50797535 -0.74601232 -3.81017721 -0.55838804 0 0 Z " fill="#26612E" transform="translate(844,430)"/>
<path d="M0 0 C2.875 1.0625 2.875 1.0625 5 3 C6.85867978 7.69095372 7 10.84554955 7 16 C-0.59 16 -8.18 16 -16 16 C-14.84347826 6.74782609 -14.84347826 6.74782609 -11 2 C-7.2774312 -0.48171253 -4.31043696 -0.52196698 0 0 Z " fill="#FCFBF7" transform="translate(1013,472)"/>
<path d="M0 0 C5.94 0 11.88 0 18 0 C18 5.61 18 11.22 18 17 C12.06 17 6.12 17 0 17 C0 11.39 0 5.78 0 0 Z " fill="#11481F" transform="translate(415,399)"/>
<path d="M0 0 C2 2 2 2 2.125 5.625 C2.08375 6.73875 2.0425 7.8525 2 9 C-3.00932754 12.00559652 -6.32723489 12.29341888 -12 12 C-11.34 14.31 -10.68 16.62 -10 19 C-6.7 19 -3.4 19 0 19 C0 19.99 0 20.98 0 22 C-3.72579089 24.48386059 -5.58711402 24.3804212 -10 24 C-13.5386994 22.34860695 -14.81070153 21.28394771 -17 18 C-17.73176768 13.05631368 -17.52245588 9.06426199 -15.3125 4.5625 C-10.26716574 -1.02827581 -7.14686327 -1.52310201 0 0 Z " fill="#5C5B5C" transform="translate(953,568)"/>
<path d="M0 0 C1.65 0 3.3 0 5 0 C4.67 6.27 4.34 12.54 4 19 C10.58540539 18.8483959 10.58540539 18.8483959 12.3671875 16.390625 C13.21371548 13.19263041 13.69969773 10.03090321 14.125 6.75 C14.29257812 5.48671875 14.46015625 4.2234375 14.6328125 2.921875 C14.75398437 1.95765625 14.87515625 0.9934375 15 0 C16.32 0 17.64 0 19 0 C19.1567564 7.71589817 18.67453101 15.31516461 18 23 C16.35 23 14.7 23 13 23 C13 22.01 13 21.02 13 20 C11.700625 20.99 11.700625 20.99 10.375 22 C6.75125073 24.14740698 5.1167938 24.64039015 1 24 C-0.69140625 22.9296875 -0.69140625 22.9296875 -2 21 C-2.109375 17.63671875 -2.109375 17.63671875 -1.75 13.6875 C-1.64171875 12.39199219 -1.5334375 11.09648438 -1.421875 9.76171875 C-1.05373412 6.4791292 -0.5845146 3.25010271 0 0 Z " fill="#5E5E5E" transform="translate(667,568)"/>
<path d="M0 0 C1 1 1 1 1.1328125 3.37109375 C1.11598249 9.976872 0.8123581 16.44310961 0 23 C-1.65 23 -3.3 23 -5 23 C-4.67 16.4 -4.34 9.8 -4 3 C-10.53576165 5.28816787 -10.53576165 5.28816787 -13 8 C-13.42728546 10.79153954 -13.42728546 10.79153954 -13.5625 13.9375 C-13.75940555 17.24470948 -13.94961388 19.84884164 -15 23 C-16.32 23 -17.64 23 -19 23 C-19.09928082 15.24506486 -19.06059488 7.68931285 -18 0 C-16.35 0 -14.7 0 -13 0 C-13 0.99 -13 1.98 -13 3 C-12.154375 2.319375 -11.30875 1.63875 -10.4375 0.9375 C-6.3172264 -1.38483603 -4.49967305 -1.14697548 0 0 Z " fill="#626161" transform="translate(884,568)"/>
<path d="M0 0 C1.73962949 1.73962949 1.17243833 4.07281723 1.1875 6.4375 C1.15319418 12.16657129 0.37518228 17.45015721 -1 23 C-2.32 23 -3.64 23 -5 23 C-5 16.73 -5 10.46 -5 4 C-10.57314026 5.04322044 -10.57314026 5.04322044 -14 9 C-14.69779382 12.49272252 -14.69779382 12.49272252 -14.75 16.25 C-14.80671875 17.51328125 -14.8634375 18.7765625 -14.921875 20.078125 C-14.94765625 21.04234375 -14.9734375 22.0065625 -15 23 C-16.65 23 -18.3 23 -20 23 C-19.85775413 20.47891897 -19.71129879 17.95819597 -19.5625 15.4375 C-19.52318359 14.73302734 -19.48386719 14.02855469 -19.44335938 13.30273438 C-19.17481721 8.8201459 -18.69383803 4.43706503 -18 0 C-16.68 0 -15.36 0 -14 0 C-13.67 0.99 -13.34 1.98 -13 3 C-12.154375 2.319375 -11.30875 1.63875 -10.4375 0.9375 C-6.3172264 -1.38483603 -4.49967305 -1.14697548 0 0 Z " fill="#636262" transform="translate(1071,568)"/>
<path d="M0 0 C0.1567564 7.71589817 -0.32546899 15.31516461 -1 23 C-2.65 23 -4.3 23 -6 23 C-6 22.34 -6 21.68 -6 21 C-6.886875 21.495 -7.77375 21.99 -8.6875 22.5 C-11.90943677 23.95899023 -13.549703 24.55950762 -17 24 C-18.8125 23 -18.8125 23 -20 21 C-20.64491363 14.22840691 -20.64491363 14.22840691 -18.6875 10.5 C-17 9 -17 9 -14 9 C-14 12.3 -14 15.6 -14 19 C-10.39007621 18.34414811 -10.39007621 18.34414811 -7 17 C-6.53193355 14.66255706 -6.17330206 12.30260921 -5.875 9.9375 C-5.62363281 8.00197266 -5.62363281 8.00197266 -5.3671875 6.02734375 C-5.24601563 5.02832031 -5.12484375 4.02929688 -5 3 C-9.96911366 4.12697043 -9.96911366 4.12697043 -14 7 C-14.99 7 -15.98 7 -17 7 C-16.71364159 4.23186874 -16.18075889 3.1687083 -14.125 1.25 C-9.4652828 -0.61388688 -4.95709043 -0.23439832 0 0 Z " fill="#636363" transform="translate(859,568)"/>
<path d="M0 0 C0 0.99 0 1.98 0 3 C-1.22976563 3.25394531 -2.45953125 3.50789062 -3.7265625 3.76953125 C-5.3594664 4.11675794 -6.99227389 4.46443823 -8.625 4.8125 C-9.43324219 4.97814453 -10.24148438 5.14378906 -11.07421875 5.31445312 C-17.85615492 6.77560197 -23.14884866 9.09334461 -28.625 13.4375 C-29.35976563 14.01371094 -30.09453125 14.58992187 -30.8515625 15.18359375 C-31.91503906 16.08271484 -31.91503906 16.08271484 -33 17 C-33.75539063 17.63550781 -34.51078125 18.27101563 -35.2890625 18.92578125 C-37.2183226 20.85720097 -37.2183226 20.85720097 -37.171875 23.359375 C-37.03265625 24.14828125 -36.8934375 24.9371875 -36.75 25.75 C-36.55664062 26.94882812 -36.55664062 26.94882812 -36.359375 28.171875 C-36.24078125 28.77515625 -36.1221875 29.3784375 -36 30 C-38.6325634 27.54294083 -40.84701619 25.45895144 -42 22 C-42.10212932 18.2212153 -40.60057446 16.27867334 -38.125 13.625 C-26.46566652 2.68242882 -15.67257663 -0.60193395 0 0 Z " fill="#A06F13" transform="translate(370,512)"/>
<path d="M0 0 C0.99 0 1.98 0 3 0 C3.2695662 7.7587735 3.49955322 15.51799301 3.7019043 23.27880859 C3.77544286 25.91937857 3.85807841 28.55971137 3.94995117 31.19970703 C4.08036022 34.99225879 4.17814655 38.78445739 4.26953125 42.578125 C4.31721146 43.76053772 4.36489166 44.94295044 4.41401672 46.16119385 C4.5662247 54.37538973 4.5662247 54.37538973 1.4831543 57.77636719 C0.66371338 58.18016602 -0.15572754 58.58396484 -1 59 C-1.02312851 51.45501767 -1.04091769 43.91003899 -1.05181217 36.36502934 C-1.05703989 32.86191115 -1.0641355 29.35881715 -1.07543945 25.85571289 C-1.08834206 21.83219159 -1.09322912 17.80869586 -1.09765625 13.78515625 C-1.10539818 11.88987938 -1.10539818 11.88987938 -1.11329651 9.95631409 C-1.11337204 8.795186 -1.11344757 7.63405792 -1.11352539 6.43774414 C-1.11685631 4.8955294 -1.11685631 4.8955294 -1.12025452 3.32215881 C-1 1 -1 1 0 0 Z " fill="#986613" transform="translate(446,517)"/>
<path d="M0 0 C7.92 0 15.84 0 24 0 C24 0.99 24 1.98 24 3 C20.7 3 17.4 3 14 3 C13.93941406 4.17175781 13.87882813 5.34351563 13.81640625 6.55078125 C13.3666765 15.05130701 12.87681245 23.53036486 12 32 C10.35 32 8.7 32 7 32 C7.13929025 28.10390391 7.28757931 24.20820038 7.4375 20.3125 C7.47681641 19.20970703 7.51613281 18.10691406 7.55664062 16.97070312 C7.59853516 15.90400391 7.64042969 14.83730469 7.68359375 13.73828125 C7.73858032 12.26935425 7.73858032 12.26935425 7.79467773 10.77075195 C7.99219333 8.10534823 8.41573033 5.60530212 9 3 C6.03 3 3.06 3 0 3 C0 2.01 0 1.02 0 0 Z " fill="#6C6C6C" transform="translate(623,559)"/>
<path d="M0 0 C3.96 0 7.92 0 12 0 C12 5.94 12 11.88 12 18 C8.04 18 4.08 18 0 18 C0 12.06 0 6.12 0 0 Z " fill="#21522A" transform="translate(421,378)"/>
<path d="M0 0 C4.71658251 1.8443047 5.95675295 4.85321224 8.01171875 9.28125 C10.13280644 15.11633708 9.64539901 19.94696259 7.4375 25.6875 C4.62988397 31.40264721 -0.07049614 35.64532338 -6 38 C-8.9453125 38.30078125 -8.9453125 38.30078125 -12.125 38.3125 C-13.17945313 38.32925781 -14.23390625 38.34601563 -15.3203125 38.36328125 C-16.20460938 38.24339844 -17.08890625 38.12351562 -18 38 C-18.66 37.01 -19.32 36.02 -20 35 C-19.13117188 34.82984375 -18.26234375 34.6596875 -17.3671875 34.484375 C-7.05599252 32.5962869 -7.05599252 32.5962869 0.4609375 25.8359375 C3.56879194 20.28987681 5.24243639 15.33312706 4 9 C2.88846352 5.87052391 1.55335921 2.93335243 0 0 Z " fill="#A16E14" transform="translate(409,439)"/>
<path d="M0 0 C4.50149291 4.50149291 4.50149291 4.50149291 4.62524414 8.796875 C4.67902977 10.2185498 4.67902977 10.2185498 4.73390198 11.66894531 C4.75927284 13.19406738 4.75927284 13.19406738 4.78515625 14.75 C4.81355087 15.80026367 4.8419455 16.85052734 4.87120056 17.93261719 C4.92519868 20.15147499 4.96910694 22.37059801 5.00366211 24.58984375 C5.06230465 27.98867784 5.16881915 31.38375249 5.27929688 34.78125 C5.32582275 36.93743925 5.36953731 39.09369138 5.41015625 41.25 C5.44528824 42.26674805 5.48042023 43.28349609 5.51661682 44.33105469 C5.52410446 45.27883789 5.5315921 46.22662109 5.53930664 47.203125 C5.55610977 48.03489258 5.5729129 48.86666016 5.59022522 49.72363281 C5 52 5 52 0 56 C0 37.52 0 19.04 0 0 Z " fill="#935D0E" transform="translate(477,492)"/>
<path d="M0 0 C0.66 0.33 1.32 0.66 2 1 C2 2.32 2 3.64 2 5 C-1.3 4.67 -4.6 4.34 -8 4 C-6.64077101 8.89322436 -4.27472965 10.45335255 0 13 C1 14 1 14 1.25 17.375 C1 21 1 21 -0.3125 22.875 C-4.07557618 25.38371746 -7.62030092 25.15641782 -12 25 C-12.99 24.67 -13.98 24.34 -15 24 C-15 22.68 -15 21.36 -15 20 C-11.37 20 -7.74 20 -4 20 C-5.11709062 15.53163754 -5.42513307 15.39594866 -9.0625 13.125 C-12.89770219 10.39345312 -12.89770219 10.39345312 -13.8125 6.875 C-13 4 -13 4 -11 1.625 C-6.95663822 -0.5651543 -4.56204596 -0.37393819 0 0 Z " fill="#5B5A5B" transform="translate(1091,567)"/>
<path d="M0 0 C0.33 0.66 0.66 1.32 1 2 C0.67 2.99 0.34 3.98 0 5 C-2.97 4.67 -5.94 4.34 -9 4 C-9.99 5.98 -10.98 7.96 -12 10 C-9.03 10 -6.06 10 -3 10 C-3.33 10.66 -3.66 11.32 -4 12 C-6.64 12 -9.28 12 -12 12 C-11.03223902 15.79547921 -11.03223902 15.79547921 -9 19 C-7.31391034 19.07205511 -5.62499341 19.08386068 -3.9375 19.0625 C-3.01839844 19.05347656 -2.09929688 19.04445313 -1.15234375 19.03515625 C-0.44207031 19.02355469 0.26820313 19.01195312 1 19 C-0.75 22.875 -0.75 22.875 -3 24 C-10.08958838 24.5811138 -10.08958838 24.5811138 -13.9375 22.125 C-17.5050839 18.44930749 -17.33836628 15.4906662 -17.28125 10.54296875 C-16.75032101 5.74248579 -14.28712232 3.10835533 -10.75 0.0625 C-6.74968989 -1.48307436 -4.17913064 -0.9054783 0 0 Z " fill="#606060" transform="translate(745,568)"/>
<path d="M0 0 C1.65 0 3.3 0 5 0 C5.35762486 10.13270429 4.24844065 19.96788765 3 30 C6.96 30 10.92 30 15 30 C15 30.99 15 31.98 15 33 C9.39 33 3.78 33 -2 33 C-1 10.27659574 -1 10.27659574 0 0 Z " fill="#5B5B5B" transform="translate(794,558)"/>
<path d="M0 0 C0 1.32 0 2.64 0 4 C-3.3 3.67 -6.6 3.34 -10 3 C-9.00128928 6.88387503 -7.69104942 8.35857399 -4.375 10.375 C-2.50390625 11.61328125 -2.50390625 11.61328125 -1 13 C-0.23556639 16.961156 -0.39560171 18.92856667 -2.375 22.4375 C-6.39154176 24.82829866 -10.43173948 24.48547716 -15 24 C-15.66 23.67 -16.32 23.34 -17 23 C-17 21.68 -17 20.36 -17 19 C-16.01 19.33 -15.02 19.66 -14 20 C-11.66700175 20.03954234 -9.33291811 20.04401732 -7 20 C-6.49758678 17.6704053 -6.49758678 17.6704053 -7 15 C-9.83333333 12.75 -9.83333333 12.75 -13 11 C-13.66 10.34 -14.32 9.68 -15 9 C-14.86764207 5.36015686 -14.75811748 2.9039093 -12.375 0.0625 C-8.1735316 -1.81710428 -4.28914818 -1.42971606 0 0 Z " fill="#585858" transform="translate(707,568)"/>
<path d="M0 0 C0.33 0 0.66 0 1 0 C1.495 6.93 1.495 6.93 2 14 C3.32 14 4.64 14 6 14 C6 14.99 6 15.98 6 17 C9.96 17 13.92 17 18 17 C18.92188461 19.76565382 19.11785222 21.38283702 19.09765625 24.23046875 C19.09515869 24.95387451 19.09266113 25.67728027 19.09008789 26.42260742 C19.08098389 27.33502197 19.07187988 28.24743652 19.0625 29.1875 C19.041875 32.095625 19.02125 35.00375 19 38 C12.4 38 5.8 38 -1 38 C-1 32.06 -1 26.12 -1 20 C-7.93 20 -14.86 20 -22 20 C-22 19.01 -22 18.02 -22 17 C-15.73 17 -9.46 17 -3 17 C-3 12.71 -3 8.42 -3 4 C-2.67 4 -2.34 4 -2 4 C-2 6.64 -2 9.28 -2 12 C-1.34 12 -0.68 12 0 12 C0 8.04 0 4.08 0 0 Z M0 20 C0 25.61 0 31.22 0 37 C5.94 37 11.88 37 18 37 C18 31.39 18 25.78 18 20 C12.06 20 6.12 20 0 20 Z " fill="#CADCCE" transform="translate(415,379)"/>
<path d="M0 0 C1.65 0 3.3 0 5 0 C5 1.98 5 3.96 5 6 C6.65 6 8.3 6 10 6 C10 7.32 10 8.64 10 10 C8.02 10 6.04 10 4 10 C3.67 15.28 3.34 20.56 3 26 C4.65 26 6.3 26 8 26 C8 26.99 8 27.98 8 29 C1.9453125 29.9765625 1.9453125 29.9765625 0 30 C-2 28 -2 28 -2.23046875 26.1875 C-2.11714094 20.41808397 -1.67007948 14.73157271 -1 9 C-1.99 9 -2.98 9 -4 9 C-4 8.01 -4 7.02 -4 6 C-2.68 6 -1.36 6 0 6 C0 4.02 0 2.04 0 0 Z " fill="#525151" transform="translate(715,562)"/>
<path d="M0 0 C0 0.99 0 1.98 0 3 C-4.455 3.495 -4.455 3.495 -9 4 C-8.67 5.32 -8.34 6.64 -8 8 C-6.2675 8.8971875 -6.2675 8.8971875 -4.5 9.8125 C-1.29471387 11.49461297 -1.08433049 11.76809115 0.25 15.4375 C0 19 0 19 -1.875 21.9375 C-5.98279324 24.64864354 -9.20186605 24.65986125 -14 24 C-14.66 23.67 -15.32 23.34 -16 23 C-16 21.68 -16 20.36 -16 19 C-13.03 19.33 -10.06 19.66 -7 20 C-6.67 18.35 -6.34 16.7 -6 15 C-6.5775 14.72027344 -7.155 14.44054687 -7.75 14.15234375 C-10.04499142 12.91320776 -12.02817134 11.71091424 -14 10 C-14.8125 6.4375 -14.8125 6.4375 -14 3 C-10.02084321 -2.13439585 -5.76399348 -1.15531024 0 0 Z " fill="#616161" transform="translate(1008,568)"/>
<path d="M0 0 C0.33 1.65 0.66 3.3 1 5 C0.07767578 4.93039062 0.07767578 4.93039062 -0.86328125 4.859375 C-5.74932693 4.52695226 -5.74932693 4.52695226 -10.0625 6.4375 C-11.44803543 10.22463017 -11.59270643 14.01270219 -11 18 C-9.21342243 20.21370051 -9.21342243 20.21370051 -6.8359375 20.1953125 C-5.61777344 20.16050781 -5.61777344 20.16050781 -4.375 20.125 C-3.55773437 20.10695313 -2.74046875 20.08890625 -1.8984375 20.0703125 C-0.95871094 20.03550781 -0.95871094 20.03550781 0 20 C-0.875 23.875 -0.875 23.875 -2 25 C-6.61544489 25.58169863 -10.00133167 25.6241677 -14 23.125 C-17.13405627 19.79506521 -17.23064953 17.5779838 -17.1484375 13.0234375 C-16.74162204 7.47790049 -14.02602203 4.62341982 -10 1 C-6.78548731 -0.60725635 -3.56387464 -0.05748185 0 0 Z " fill="#5E5F5F" transform="translate(976,567)"/>
<path d="M0 0 C3 0.4375 3 0.4375 4.875 1.5 C6.65886119 4.57220538 6.35458787 6.95071932 6 10.4375 C4.64184747 13.70941292 3.50104494 15.93645506 1 18.4375 C-2.29714793 18.10778521 -3.6226839 17.8148161 -6 15.4375 C-6.30078125 12.9765625 -6.30078125 12.9765625 -6.3125 10.0625 C-6.32925781 9.10601563 -6.34601563 8.14953125 -6.36328125 7.1640625 C-5.77727796 2.76588727 -4.45757854 0.65006354 0 0 Z " fill="#F5F5F5" transform="translate(1036,570.5625)"/>
<path d="M0 0 C2.38370909 2.38370909 2.29588602 2.9936599 2.3125 6.25 C2.19596731 10.50001566 1.61296769 13.51604308 -1 17 C-4.1875 17.875 -4.1875 17.875 -7 18 C-9.82815691 14.60621171 -10.20553017 12.14071018 -9.875 7.875 C-9.5926157 5.05971412 -9.36154917 3.47343258 -7.63671875 1.21484375 C-5.11305175 -0.65833151 -3.04008349 -0.32341314 0 0 Z " fill="#F6F6F6" transform="translate(828,571)"/>
<path d="M0 0 C0.38970588 9.9375 0.38970588 9.9375 -2 14 C-3.8125 15.875 -3.8125 15.875 -6 17 C-8.6875 16.8125 -8.6875 16.8125 -11 16 C-12.59453633 12.81092735 -12.38561702 9.47055318 -12 6 C-9.07981104 -0.2385855 -6.60700255 -0.1223519 0 0 Z " fill="#F3F3F3" transform="translate(768,571)"/>
<path d="M0 0 C4 3 4 3 4.51898193 4.95524597 C4.52786438 5.69470963 4.53674683 6.43417328 4.54589844 7.19604492 C4.56561707 8.03668991 4.58533569 8.8773349 4.60565186 9.74345398 C4.60688049 10.64666885 4.60810913 11.54988373 4.609375 12.48046875 C4.62591125 13.40845779 4.64244751 14.33644684 4.65948486 15.29255676 C4.70808427 18.25760435 4.72936222 21.22213866 4.75 24.1875 C4.7781497 26.19729162 4.80807571 28.2070592 4.83984375 30.21679688 C4.91384645 35.14448901 4.96334806 40.0718942 5 45 C4.67 45 4.34 45 4 45 C4 43.35 4 41.7 4 40 C3.34 40 2.68 40 2 40 C2 39.34 2 38.68 2 38 C1.34 38 0.68 38 0 38 C0 25.46 0 12.92 0 0 Z " fill="#98640D" transform="translate(312,425)"/>
<path d="M0 0 C1.9375 0.8125 1.9375 0.8125 4.9375 2.8125 C3.82375 3.06 2.71 3.3075 1.5625 3.5625 C-1.98090594 4.45170966 -1.98090594 4.45170966 -3.5 6.4375 C-4.45218697 10.45784497 -4.94727305 15.0429539 -3.0625 18.8125 C1.06723628 18.24510132 1.06723628 18.24510132 4.9375 16.8125 C5.5975 17.8025 6.2575 18.7925 6.9375 19.8125 C6.6075 20.8025 6.2775 21.7925 5.9375 22.8125 C5.9375 22.1525 5.9375 21.4925 5.9375 20.8125 C5.091875 21.328125 4.24625 21.84375 3.375 22.375 C-0.7475174 24.09896182 -2.80444939 24.09794924 -7.0625 22.8125 C-9.79707504 19.90150077 -10.05128366 17.91184475 -10.5 13.9375 C-10.2833942 8.4810967 -7.91438963 4.66438963 -4.0625 0.8125 C-2.0625 -0.1875 -2.0625 -0.1875 0 0 Z " fill="#616161" transform="translate(761.0625,568.1875)"/>
<path d="M0 0 C2.77109307 -0.05392397 5.54113818 -0.09363455 8.3125 -0.125 C9.09818359 -0.14175781 9.88386719 -0.15851562 10.69335938 -0.17578125 C11.45068359 -0.18222656 12.20800781 -0.18867187 12.98828125 -0.1953125 C13.68477783 -0.20578613 14.38127441 -0.21625977 15.09887695 -0.22705078 C17 0 17 0 20 2 C15.05183286 4.80396138 10.38317715 3.77350507 5 3 C4.9906543 3.55985596 4.98130859 4.11971191 4.97167969 4.6965332 C4.91795493 7.23608146 4.83431813 9.77379111 4.75 12.3125 C4.73582031 13.19357422 4.72164062 14.07464844 4.70703125 14.98242188 C4.45812087 21.52876499 4.45812087 21.52876499 1.953125 24.10546875 C1.30859375 24.40066406 0.6640625 24.69585938 0 25 C-2.5890602 17.2328194 -0.76995387 8.00202058 0 0 Z " fill="#646364" transform="translate(906,559)"/>
<path d="M0 0 C0.19054727 5.43059731 -0.03711588 9.83451546 -2 15 C-5 17 -5 17 -7.6875 16.625 C-8.8321875 16.315625 -8.8321875 16.315625 -10 16 C-10.125 9.375 -10.125 9.375 -9 6 C-10.32 6.33 -11.64 6.66 -13 7 C-13 5.35 -13 3.7 -13 2 C-12.67 2.66 -12.34 3.32 -12 4 C-10.948125 3.34 -9.89625 2.68 -8.8125 2 C-5.73376063 0.2228415 -3.61403672 -0.43806506 0 0 Z " fill="#F2F2F2" transform="translate(854,571)"/>
<path d="M0 0 C3 1 3 1 4 3 C4.23572388 6.99444834 4.22848729 10.99083622 4.24023438 14.99169922 C4.24982807 16.96464196 4.28096811 18.93744217 4.3125 20.91015625 C4.34324682 28.4661866 3.75654167 34.93194445 1 42 C0.67 42 0.34 42 0 42 C0 28.14 0 14.28 0 0 Z " fill="#9D6D19" transform="translate(508,462)"/>
<path d="M0 0 C1.32 0 2.64 0 4 0 C4 0.99 4 1.98 4 3 C4.66 3 5.32 3 6 3 C6 2.34 6 1.68 6 1 C9.465 0.505 9.465 0.505 13 0 C12.8125 1.875 12.8125 1.875 12 4 C9.625 5.0625 9.625 5.0625 7 6 C5.24996769 7.06512166 5.24996769 7.06512166 4 9 C3.41781668 12.4223884 3.41781668 12.4223884 3.3125 16.1875 C3.24675781 17.45980469 3.18101562 18.73210938 3.11328125 20.04296875 C3.07589844 21.01878906 3.03851562 21.99460937 3 23 C1.35 23 -0.3 23 -2 23 C-1.85775413 20.47891897 -1.71129879 17.95819597 -1.5625 15.4375 C-1.52318359 14.73302734 -1.48386719 14.02855469 -1.44335938 13.30273438 C-1.17481721 8.8201459 -0.69383803 4.43706503 0 0 Z " fill="#525252" transform="translate(649,568)"/>
<path d="M0 0 C1.65 0 3.3 0 5 0 C5.31732638 7.77449624 4.11855299 15.32992235 3 23 C1.35 23 -0.3 23 -2 23 C-1.85865273 20.10388456 -1.7120847 17.2081919 -1.5625 14.3125 C-1.52318359 13.49587891 -1.48386719 12.67925781 -1.44335938 11.83789062 C-1.23101997 7.80344189 -0.95552078 3.94252691 0 0 Z " fill="#626262" transform="translate(983,568)"/>
<path d="M0 0 C0.99 0.33 1.98 0.66 3 1 C3.94921875 3.72265625 3.94921875 3.72265625 4.6875 7.0625 C4.93886719 8.16722656 5.19023438 9.27195312 5.44921875 10.41015625 C5.63097656 11.26480469 5.81273437 12.11945312 6 13 C9.3 13 12.6 13 16 13 C16 13.99 16 14.98 16 16 C12.27420911 18.48386059 10.41288598 18.3804212 6 18 C2.4613006 16.34860695 1.18929847 15.28394771 -1 12 C-1.23046875 9.58984375 -1.23046875 9.58984375 -1.1875 6.9375 C-1.18105469 6.05964844 -1.17460938 5.18179688 -1.16796875 4.27734375 C-1 2 -1 2 0 0 Z " fill="#5E5E5E" transform="translate(937,574)"/>
<path d="M0 0 C1.65 0 3.3 0 5 0 C5.31732638 7.77449624 4.11855299 15.32992235 3 23 C1.35 23 -0.3 23 -2 23 C-1.34 15.41 -0.68 7.82 0 0 Z " fill="#616161" transform="translate(1015,568)"/>
<path d="M0 0 C-2.33333333 2.33333333 -4.66666667 4.66666667 -7 7 C-7.14507695 9.74485593 -7.18652423 12.38480543 -7.125 15.125 C-7.11597656 15.87910156 -7.10695313 16.63320313 -7.09765625 17.41015625 C-7.0740687 19.27357254 -7.03819719 21.13682593 -7 23 C-11.47371683 20.01752211 -11.82867376 16.0679382 -13 11 C-13.5625 7.6875 -13.5625 7.6875 -13 5 C-8.8619037 0.35725781 -6.36180493 -0.63618049 0 0 Z " fill="#9E6B0C" transform="translate(506,428)"/>
<path d="M0 0 C0.33 0 0.66 0 1 0 C1.11069824 0.59949463 1.22139648 1.19898926 1.33544922 1.81665039 C1.84515364 4.56592494 2.36003722 7.31420574 2.875 10.0625 C3.13603516 11.47692383 3.13603516 11.47692383 3.40234375 12.91992188 C4.36604436 18.04181215 5.46607967 23.0182137 7 28 C7.66 27.67 8.32 27.34 9 27 C8.25 32.75 8.25 32.75 6 35 C3.1738095 29.34761901 1.27699428 23.79547711 -0.25 17.6875 C-0.42499023 16.99398438 -0.59998047 16.30046875 -0.78027344 15.5859375 C-1.58295911 12.25891035 -2 9.44695462 -2 6 C-1.34 6 -0.68 6 0 6 C0 4.02 0 2.04 0 0 Z " fill="#9A6910" transform="translate(319,490)"/>
<path d="M0 0 C1.65 0 3.3 0 5 0 C5 1.98 5 3.96 5 6 C6.65 6 8.3 6 10 6 C10 7.32 10 8.64 10 10 C8.02 10 6.04 10 4 10 C3.67 11.32 3.34 12.64 3 14 C2.67 13.34 2.34 12.68 2 12 C1.01 12.33 0.02 12.66 -1 13 C-1 11.68 -1 10.36 -1 9 C-1.99 9 -2.98 9 -4 9 C-4 8.01 -4 7.02 -4 6 C-2.68 6 -1.36 6 0 6 C0 4.02 0 2.04 0 0 Z " fill="#666565" transform="translate(715,562)"/>
<path d="M0 0 C0.66 0 1.32 0 2 0 C2.33 1.98 2.66 3.96 3 6 C1.125 8.125 1.125 8.125 -2 10 C-5.45453653 9.75739133 -8.67798868 8.9546751 -12 8 C-10.125 2.125 -10.125 2.125 -9 1 C-4.96839809 0.73706944 -3.44107266 0.70595156 0 3 C0 2.01 0 1.02 0 0 Z " fill="#767576" transform="translate(745,570)"/>
<path d="M0 0 C2.4375 0.375 2.4375 0.375 5 1 C6.96143223 4.92286446 6.34690111 9.71329344 6 14 C4.65344741 17.29905386 3.83535493 18.49878704 0.8125 20.3125 C-0.0846875 20.6528125 -0.0846875 20.6528125 -1 21 C-0.125 14.25 -0.125 14.25 1 12 C1.15725856 7.83264813 0.98317108 4.05558072 0 0 Z " fill="#525252" transform="translate(1040,569)"/>
<path d="M0 0 C0.33 0 0.66 0 1 0 C1.33 1.65 1.66 3.3 2 5 C2.99 4.01 3.98 3.02 5 2 C5.309375 2.969375 5.61875 3.93875 5.9375 4.9375 C6.69523342 7.84065792 6.69523342 7.84065792 8 9 C9.51928038 9.07179964 11.04167482 9.08392007 12.5625 9.0625 C13.38878906 9.05347656 14.21507812 9.04445313 15.06640625 9.03515625 C15.70449219 9.02355469 16.34257813 9.01195312 17 9 C16.125 12.875 16.125 12.875 15 14 C10.38455511 14.58169863 6.99866833 14.6241677 3 12.125 C-0.71932063 8.17322183 -0.08437656 5.2313468 0 0 Z " fill="#616161" transform="translate(959,578)"/>
<path d="M0 0 C7.82484076 -0.60191083 7.82484076 -0.60191083 11.5625 1.3125 C13.87726675 5.6401074 13.46548206 10.19256232 13 15 C12.67 15.66 12.34 16.32 12 17 C10.68 16.67 9.36 16.34 8 16 C7.93941406 15.25234375 7.87882813 14.5046875 7.81640625 13.734375 C7.73261719 12.74953125 7.64882813 11.7646875 7.5625 10.75 C7.48128906 9.77546875 7.40007813 8.8009375 7.31640625 7.796875 C7.04925416 5.43538247 6.64628032 3.28098935 6 1 C4.02 1 2.04 1 0 1 C0 0.67 0 0.34 0 0 Z " fill="#666566" transform="translate(822,568)"/>
<path d="M0 0 C0.33 0 0.66 0 1 0 C1 1.65 1 3.3 1 5 C1.66 5 2.32 5 3 5 C3 10.61 3 16.22 3 22 C1.35 22 -0.3 22 -2 22 C-2.25515919 14.47280398 -1.28297723 7.41148455 0 0 Z " fill="#616161" transform="translate(632,569)"/>
<path d="M0 0 C5.61 0 11.22 0 17 0 C17 0.33 17 0.66 17 1 C27.23 1.33 37.46 1.66 48 2 C48 2.33 48 2.66 48 3 C32.16 3 16.32 3 0 3 C0 2.01 0 1.02 0 0 Z " fill="#919192" transform="translate(544,572)"/>
<path d="M0 0 C0.33 0 0.66 0 1 0 C1 3.63 1 7.26 1 11 C3.97 11 6.94 11 10 11 C9.67 11.99 9.34 12.98 9 14 C4.71 14 0.42 14 -4 14 C-4 10.7 -4 7.4 -4 4 C-3.34 4 -2.68 4 -2 4 C-1.67 4.66 -1.34 5.32 -1 6 C-0.67 4.02 -0.34 2.04 0 0 Z " fill="#565656" transform="translate(908,577)"/>
<path d="M0 0 C3.96 0 7.92 0 12 0 C12 0.33 12 0.66 12 1 C9.36 1.33 6.72 1.66 4 2 C3.67 6.95 3.34 11.9 3 17 C5.97 17 8.94 17 12 17 C12 17.33 12 17.66 12 18 C8.04 18 4.08 18 0 18 C0 12.06 0 6.12 0 0 Z " fill="#547758" transform="translate(421,378)"/>
<path d="M0 0 C1.98 0 3.96 0 6 0 C6 4.95 6 9.9 6 15 C4.68 15 3.36 15 2 15 C1.34 10.05 0.68 5.1 0 0 Z " fill="#EBF4E1" transform="translate(415,378)"/>
<path d="M0 0 C2.51783568 1.71405658 3.83649644 3.16734017 4.43069458 6.19335938 C4.6441293 9.04960139 4.73751455 11.88610818 4.78515625 14.75 C4.81355087 15.80026367 4.8419455 16.85052734 4.87120056 17.93261719 C4.92519868 20.15147499 4.96910694 22.37059801 5.00366211 24.58984375 C5.06230465 27.98867784 5.16881915 31.38375249 5.27929688 34.78125 C5.32582275 36.93743925 5.36953731 39.09369138 5.41015625 41.25 C5.44528824 42.26674805 5.48042023 43.28349609 5.51661682 44.33105469 C5.57241868 51.39443692 5.57241868 51.39443692 2.47436523 54.671875 C1.65782471 55.11015625 0.84128418 55.5484375 0 56 C0.33 54.35 0.66 52.7 1 51 C1.66 51 2.32 51 3 51 C2.90757142 44.54018596 2.80024496 38.08074188 2.68261719 31.62133789 C2.6443626 29.42445474 2.6095036 27.2275097 2.578125 25.03051758 C2.5323984 21.87038068 2.47441582 18.7106685 2.4140625 15.55078125 C2.40251129 14.57039383 2.39096008 13.59000641 2.37905884 12.57991028 C2.24073956 6.07210274 2.24073956 6.07210274 0 0 Z " fill="#A96C10" transform="translate(477,492)"/>
<path d="M0 0 C0 1.32 0 2.64 0 4 C-3.3 3.67 -6.6 3.34 -10 3 C-10.33 4.32 -10.66 5.64 -11 7 C-11.66 7 -12.32 7 -13 7 C-13.66 7.66 -14.32 8.32 -15 9 C-14.51834131 2.61802233 -14.51834131 2.61802233 -12.375 0.0625 C-8.1735316 -1.81710428 -4.28914818 -1.42971606 0 0 Z " fill="#737374" transform="translate(707,568)"/>
<path d="M0 0 C0.99 0.33 1.98 0.66 3 1 C3.22823248 10.28145408 2.90427108 18.86970027 1 28 C0.67 28 0.34 28 0 28 C0 18.76 0 9.52 0 0 Z " fill="#925F0A" transform="translate(508,462)"/>
<path d="M0 0 C0 0.66 0 1.32 0 2 C-1.11375 2.226875 -2.2275 2.45375 -3.375 2.6875 C-7.16038373 3.60623658 -7.16038373 3.60623658 -8.4375 6.625 C-8.7159375 7.800625 -8.7159375 7.800625 -9 9 C-9.33 8.34 -9.66 7.68 -10 7 C-13.12606964 8.60480784 -13.12606964 8.60480784 -13.51171875 10.9453125 C-13.59873047 12.02425781 -13.59873047 12.02425781 -13.6875 13.125 C-13.790625 14.40375 -13.89375 15.6825 -14 17 C-14.33 17 -14.66 17 -15 17 C-15.54133971 10.36858855 -14.89897323 6.45856253 -11 1 C-6.8204355 -1.78637633 -4.85331323 -0.79562512 0 0 Z " fill="#6F6F6F" transform="translate(828,569)"/>
<path d="M0 0 C0.33 0 0.66 0 1 0 C1.1953125 2.01822917 1.390625 4.03645833 1.5859375 6.0546875 C1.86374749 8.22668245 1.86374749 8.22668245 4 10 C7.09926819 9.67801034 7.09926819 9.67801034 10 9 C10.33 10.32 10.66 11.64 11 13 C2.96498906 14.61050328 2.96498906 14.61050328 -1.0625 12.0625 C-1.701875 11.381875 -2.34125 10.70125 -3 10 C-2.01 6.7 -1.02 3.4 0 0 Z " fill="#666566" transform="translate(1029,578)"/>
<path d="M0 0 C4 3 4 3 4.45410156 5.91088867 C4.4331543 7.0682251 4.41220703 8.22556152 4.390625 9.41796875 C4.37773437 10.67158203 4.36484375 11.92519531 4.3515625 13.21679688 C4.31804687 14.52712891 4.28453125 15.83746094 4.25 17.1875 C4.22993307 18.5227601 4.21168262 19.85804883 4.1953125 21.19335938 C4.14809803 24.46296146 4.08225184 27.73112192 4 31 C3.67 31 3.34 31 3 31 C2.67 26.71 2.34 22.42 2 18 C1.67 18 1.34 18 1 18 C0.67 12.06 0.34 6.12 0 0 Z " fill="#A76E0D" transform="translate(312,425)"/>
<path d="M0 0 C0 0.66 0 1.32 0 2 C-3.41600767 4.07105779 -6.1621599 4.29789494 -10.125 4.3125 C-11.17945313 4.32925781 -12.23390625 4.34601563 -13.3203125 4.36328125 C-14.20460938 4.24339844 -15.08890625 4.12351562 -16 4 C-16.66 3.01 -17.32 2.02 -18 1 C-15.75152519 0.63627613 -13.50113812 0.28435904 -11.25 -0.0625 C-9.99703125 -0.25972656 -8.7440625 -0.45695312 -7.453125 -0.66015625 C-4.49983411 -0.95080818 -2.7397586 -0.98935727 0 0 Z " fill="#966511" transform="translate(407,473)"/>
<path d="M0 0 C0.33 0.66 0.66 1.32 1 2 C1.763125 2.28875 2.52625 2.5775 3.3125 2.875 C6.28908843 4.12101376 7.86007284 5.62230316 10 8 C9.01 9.485 9.01 9.485 8 11 C4.00499382 9.6302836 1.19990508 7.74277578 -2 5 C-1.125 1.125 -1.125 1.125 0 0 Z " fill="#595859" transform="translate(695,573)"/>
<path d="M0 0 C-0.375 1.9375 -0.375 1.9375 -1 4 C-1.99 4.495 -1.99 4.495 -3 5 C-3 4.34 -3 3.68 -3 3 C-4.918125 3.433125 -4.918125 3.433125 -6.875 3.875 C-7.95394531 4.11863281 -7.95394531 4.11863281 -9.0546875 4.3671875 C-11.20719964 4.90474428 -11.20719964 4.90474428 -13 7 C-13.99 7 -14.98 7 -16 7 C-15.70926678 4.18957887 -15.18436938 3.16652718 -13.0625 1.25 C-8.70270059 -0.52950996 -4.64846562 -0.24370596 0 0 Z " fill="#5E5E5E" transform="translate(858,568)"/>
<path d="M0 0 C0.66 0.33 1.32 0.66 2 1 C2 2.32 2 3.64 2 5 C-1.3 4.67 -4.6 4.34 -8 4 C-8.33 4.99 -8.66 5.98 -9 7 C-9.99 6.01 -10.98 5.02 -12 4 C-8.40649822 -0.7913357 -5.6049033 -0.45200833 0 0 Z " fill="#737273" transform="translate(1091,567)"/>
<path d="M0 0 C3.58912412 3.58912412 3.44420474 4.77293583 3.6875 9.6875 C3.75324219 10.86699219 3.81898438 12.04648437 3.88671875 13.26171875 C3.92410156 14.16535156 3.96148438 15.06898438 4 16 C2.35 16 0.7 16 -1 16 C-0.67 10.72 -0.34 5.44 0 0 Z " fill="#626262" transform="translate(648,575)"/>
<path d="M0 0 C2 2 2 2 2.3125 5.1875 C1.95717884 9.52241809 0.89596629 12.12906883 -1 16 C-1.66 16 -2.32 16 -3 16 C-3.02708567 14.39592672 -3.04643483 12.7917215 -3.0625 11.1875 C-3.07410156 10.29417969 -3.08570313 9.40085937 -3.09765625 8.48046875 C-3 6 -3 6 -2 3 C-1.34 3 -0.68 3 0 3 C0 2.01 0 1.02 0 0 Z " fill="#B78521" transform="translate(441,407)"/>
<path d="M0 0 C1.65 0 3.3 0 5 0 C5.08333357 4.8333472 4.95261487 9.23692563 4 14 C1.68540132 12.18182999 1.04622813 11.24384457 0.48828125 8.30078125 C0.43027344 7.31464844 0.37226562 6.32851563 0.3125 5.3125 C0.24675781 4.31863281 0.18101562 3.32476563 0.11328125 2.30078125 C0.07589844 1.54152344 0.03851562 0.78226563 0 0 Z " fill="#6E6D6D" transform="translate(983,568)"/>
<path d="M0 0 C7.59 0 15.18 0 23 0 C23 0.99 23 1.98 23 3 C20.36 3 17.72 3 15 3 C15 2.34 15 1.68 15 1 C14.01 1.165 13.02 1.33 12 1.5 C7.97267058 2.08474517 4.06525377 2.07132024 0 2 C0 1.34 0 0.68 0 0 Z " fill="#605E5F" transform="translate(624,559)"/>
<path d="M0 0 C1.4540625 0.0309375 1.4540625 0.0309375 2.9375 0.0625 C3.5625 1.9375 3.5625 1.9375 3.9375 4.0625 C1.9375 6.0625 1.9375 6.0625 -1.6875 6.1875 C-2.80125 6.14625 -3.915 6.105 -5.0625 6.0625 C-3.98897059 0.08140756 -3.98897059 0.08140756 0 0 Z " fill="#F0F0F0" transform="translate(947.0625,570.9375)"/>
<path d="M0 0 C1.4540625 0.0309375 1.4540625 0.0309375 2.9375 0.0625 C3.5625 1.9375 3.5625 1.9375 3.9375 4.0625 C1.9375 6.0625 1.9375 6.0625 -1.6875 6.1875 C-2.80125 6.14625 -3.915 6.105 -5.0625 6.0625 C-3.98897059 0.08140756 -3.98897059 0.08140756 0 0 Z " fill="#F1F1F2" transform="translate(739.0625,570.9375)"/>
<path d="M0 0 C0.66 0 1.32 0 2 0 C2.33 3.63 2.66 7.26 3 11 C1.33333333 11 -0.33333333 11 -2 11 C-2.05399736 9.54207116 -2.09279177 8.08357288 -2.125 6.625 C-2.15980469 5.40683594 -2.15980469 5.40683594 -2.1953125 4.1640625 C-2 2 -2 2 0 0 Z " fill="#5A5A5A" transform="translate(816,576)"/>
<path d="M0 0 C2.04795423 1.9626228 2.94976638 3.4277307 3.19921875 6.26953125 C3.18858877 8.51954383 3.12958525 10.75385562 3 13 C1.68 13 0.36 13 -1 13 C-1.02686553 11.02090602 -1.04633375 9.04171029 -1.0625 7.0625 C-1.07410156 5.96035156 -1.08570313 4.85820313 -1.09765625 3.72265625 C-1 1 -1 1 0 0 Z " fill="#575757" transform="translate(1067,578)"/>
<path d="M0 0 C0.99 0 1.98 0 3 0 C2.85845864 2.56280208 2.71191438 5.12515485 2.5625 7.6875 C2.50352539 8.7693457 2.50352539 8.7693457 2.44335938 9.87304688 C2.21814322 13.66707282 1.87160695 17.28651492 1 21 C0.67 21 0.34 21 0 21 C0 14.07 0 7.14 0 0 Z " fill="#CC9937" transform="translate(512,470)"/>
<path d="M0 0 C3.3 0.33 6.6 0.66 10 1 C10 2.32 10 3.64 10 5 C3.375 5.125 3.375 5.125 0 4 C0 2.68 0 1.36 0 0 Z " fill="#5F5F60" transform="translate(1076,587)"/>
<path d="M0 0 C2.97 0.33 5.94 0.66 9 1 C9 1.33 9 1.66 9 2 C6.69 2 4.38 2 2 2 C2 5.96 2 9.92 2 14 C1.34 12.68 0.68 11.36 0 10 C-0.99 10.495 -0.99 10.495 -2 11 C-1.49547781 7.25212088 -0.91840767 3.67363066 0 0 Z " fill="#BE8E32" transform="translate(442,399)"/>
<path d="M0 0 C0.33 0 0.66 0 1 0 C1 3.96 1 7.92 1 12 C-0.32 12 -1.64 12 -3 12 C-2.88601335 10.37419034 -2.75844341 8.74932843 -2.625 7.125 C-2.55539062 6.22007812 -2.48578125 5.31515625 -2.4140625 4.3828125 C-2 2 -2 2 0 0 Z " fill="#4D4C4D" transform="translate(868,579)"/>
<path d="M0 0 C0.66 0 1.32 0 2 0 C1.88541307 1.43836751 1.75790884 2.87570966 1.625 4.3125 C1.55539062 5.11300781 1.48578125 5.91351562 1.4140625 6.73828125 C1 9 1 9 -1 12 C-1.66 12 -2.32 12 -3 12 C-3.29162929 7.04230204 -3.12940055 3.97193147 0 0 Z " fill="#515151" transform="translate(1028,574)"/>
<path d="M0 0 C0.66 0 1.32 0 2 0 C4 2 4 2 4.1953125 4.3828125 C4.17210937 5.28773438 4.14890625 6.19265625 4.125 7.125 C4.10695313 8.03507813 4.08890625 8.94515625 4.0703125 9.8828125 C4.04710937 10.58148437 4.02390625 11.28015625 4 12 C3.01 12 2.02 12 1 12 C0.22596442 7.93631321 -0.0984702 4.13574827 0 0 Z " fill="#5A5959" transform="translate(853,579)"/>
<path d="M0 0 C0.99 0 1.98 0 3 0 C3.50559908 1.43554025 4.0042749 2.8735202 4.5 4.3125 C4.7784375 5.11300781 5.056875 5.91351563 5.34375 6.73828125 C6 9 6 9 6 12 C5.01 12 4.02 12 3 12 C2.49166409 10.75336669 1.99368855 9.50250613 1.5 8.25 C1.2215625 7.55390625 0.943125 6.8578125 0.65625 6.140625 C0 4 0 4 0 0 Z " fill="#9C6611" transform="translate(485,410)"/>
<path d="M0 0 C0.33 0 0.66 0 1 0 C1 1.98 1 3.96 1 6 C2.65 6 4.3 6 6 6 C6 6.99 6 7.98 6 9 C3.36 9.33 0.72 9.66 -2 10 C-2.33 8.35 -2.66 6.7 -3 5 C-2.34 4.67 -1.68 4.34 -1 4 C-0.34786708 1.97536745 -0.34786708 1.97536745 0 0 Z " fill="#6A6A6A" transform="translate(717,582)"/>
<path d="M0 0 C-0.61359375 0.24492188 -1.2271875 0.48984375 -1.859375 0.7421875 C-4.42635567 2.25052285 -5.03857904 3.44256788 -6.25 6.125 C-6.58515625 6.84945312 -6.9203125 7.57390625 -7.265625 8.3203125 C-7.50796875 8.87460937 -7.7503125 9.42890625 -8 10 C-6.35 10 -4.7 10 -3 10 C-3 10.33 -3 10.66 -3 11 C-4.98 11 -6.96 11 -9 11 C-9 9.35 -9 7.7 -9 6 C-9.99 5.67 -10.98 5.34 -12 5 C-4.88610478 -0.74031891 -4.88610478 -0.74031891 0 0 Z " fill="#757575" transform="translate(950,567)"/>
<path d="M0 0 C0.33 0 0.66 0 1 0 C0.98839844 0.73863281 0.97679687 1.47726562 0.96484375 2.23828125 C0.90270423 9.22453848 1.23455014 16.0562763 2 23 C0.48300584 20.19547298 -0.45308563 17.6142698 -1.125 14.5 C-1.29257812 13.7471875 -1.46015625 12.994375 -1.6328125 12.21875 C-2 10 -2 10 -2 6 C-1.34 6 -0.68 6 0 6 C0 4.02 0 2.04 0 0 Z " fill="#9C7125" transform="translate(319,490)"/>
<path d="M0 0 C0.33 0 0.66 0 1 0 C1.93854006 7.03905044 2.10808032 13.90272572 2 21 C1.34 21 0.68 21 0 21 C-1.2380014 17.42355152 -0.74926071 14.66305234 0 11 C-0.33 11 -0.66 11 -1 11 C-0.67 7.37 -0.34 3.74 0 0 Z " fill="#935F0C" transform="translate(317,475)"/>
<path d="M0 0 C0.33 0 0.66 0 1 0 C1.1875 2.3125 1.1875 2.3125 1 5 C-0.375 6.5625 -0.375 6.5625 -2 8 C-3.17574711 10.09989652 -3.17574711 10.09989652 -4 12 C-6.66666667 11.33333333 -9.33333333 10.66666667 -12 10 C-11.20335937 9.67128906 -11.20335937 9.67128906 -10.390625 9.3359375 C-5.17025914 6.99248859 -2.81872627 4.96095823 0 0 Z " fill="#9D7428" transform="translate(411,462)"/>
<path d="M0 0 C0 0.99 0 1.98 0 3 C-2.53184488 5.35723489 -3.47190093 6 -7 6 C-7.226875 6.61875 -7.45375 7.2375 -7.6875 7.875 C-9.37929835 10.61410209 -10.99244161 11.05024472 -14 12 C-9.97121781 6.7045931 -5.82530885 3.20835538 0 0 Z " fill="#9B7128" transform="translate(344,517)"/>
<path d="M0 0 C1 3 1 3 1 5 C-3.0909066 8.31168629 -5.73628638 9.50130606 -11 9 C-11 8.34 -11 7.68 -11 7 C-9.865625 6.71125 -8.73125 6.4225 -7.5625 6.125 C-6.386875 5.75375 -5.21125 5.3825 -4 5 C-3.67 4.34 -3.34 3.68 -3 3 C-2.34 3 -1.68 3 -1 3 C-0.67 2.01 -0.34 1.02 0 0 Z " fill="#6A6B6B" transform="translate(679,583)"/>
<path d="M0 0 C1.32 0 2.64 0 4 0 C4 3.3 4 6.6 4 10 C3.34 8.68 2.68 7.36 2 6 C1.01 6.66 0.02 7.32 -1 8 C-0.67 5.36 -0.34 2.72 0 0 Z " fill="#6A6A6A" transform="translate(682,568)"/>
<path d="M0 0 C-1.07710178 4.30840713 -2.03947516 7.63576723 -5 11 C-5.08096803 9.54257537 -5.13917774 8.08387193 -5.1875 6.625 C-5.22230469 5.81289063 -5.25710938 5.00078125 -5.29296875 4.1640625 C-5.19628906 3.44992187 -5.09960938 2.73578125 -5 2 C-2 0 -2 0 0 0 Z " fill="#545453" transform="translate(965,574)"/>
<path d="M0 0 C1.67542976 0.28604898 3.34385343 0.61781233 5 1 C5 2.32 5 3.64 5 5 C3.35 5.33 1.7 5.66 0 6 C-0.38218767 4.34385343 -0.71395102 2.67542976 -1 1 C-0.67 0.67 -0.34 0.34 0 0 Z " fill="#767676" transform="translate(1017,557)"/>
<path d="M0 0 C3.63 0 7.26 0 11 0 C11 0.99 11 1.98 11 3 C7.7 3 4.4 3 1 3 C0.67 2.01 0.34 1.02 0 0 Z " fill="#504F50" transform="translate(798,588)"/>
<path d="M0 0 C0.66 0.33 1.32 0.66 2 1 C2 1.66 2 2.32 2 3 C2.66 3 3.32 3 4 3 C2.95125002 5.62187494 2.35068687 6.79371361 -0.125 8.25 C-0.74375 8.4975 -1.3625 8.745 -2 9 C-1.125 2.25 -1.125 2.25 0 0 Z " fill="#595958" transform="translate(1041,581)"/>
<path d="M0 0 C0.99 0.33 1.98 0.66 3 1 C3.33 3.64 3.66 6.28 4 9 C3.01 8.34 2.02 7.68 1 7 C0.67 8.65 0.34 10.3 0 12 C-0.33 12 -0.66 12 -1 12 C-1.02698189 10.37509046 -1.04638757 8.75005367 -1.0625 7.125 C-1.07410156 6.22007812 -1.08570313 5.31515625 -1.09765625 4.3828125 C-1 2 -1 2 0 0 Z " fill="#656565" transform="translate(937,574)"/>
<path d="M0 0 C0.66 0 1.32 0 2 0 C0.59155282 3.21524305 -1.10344786 5.32183868 -3.625 7.75 C-4.57246094 8.67039062 -4.57246094 8.67039062 -5.5390625 9.609375 C-6.02117188 10.06828125 -6.50328125 10.5271875 -7 11 C-7.66 10.67 -8.32 10.34 -9 10 C-7.8758824 8.70756532 -6.75067408 7.41607925 -5.625 6.125 C-4.99851562 5.40570313 -4.37203125 4.68640625 -3.7265625 3.9453125 C-2.52573166 2.5923402 -1.2791655 1.2791655 0 0 Z " fill="#C3942E" transform="translate(874,438)"/>
<path d="M0 0 C-0.9590625 0.1546875 -0.9590625 0.1546875 -1.9375 0.3125 C-2.618125 0.539375 -3.29875 0.76625 -4 1 C-4.33 1.99 -4.66 2.98 -5 4 C-8.44444444 7 -8.44444444 7 -11 7 C-10.63802104 4.37565253 -10.17343943 3.17986311 -8.3125 1.25 C-5.39572708 -0.32663401 -3.26709987 -0.22275681 0 0 Z " fill="#555556" transform="translate(1068,568)"/>
<path d="M0 0 C3.16115776 1.36983503 3.9927092 1.9890638 6 5 C6.1953125 8.35546875 6.1953125 8.35546875 6.125 12.1875 C6.10695313 13.45980469 6.08890625 14.73210937 6.0703125 16.04296875 C6.03550781 17.50669922 6.03550781 17.50669922 6 19 C5.67 19 5.34 19 5 19 C4.89042969 18.13117188 4.78085937 17.26234375 4.66796875 16.3671875 C3.54303574 7.77143955 3.54303574 7.77143955 0 0 Z " fill="#926619" transform="translate(409,439)"/>
<path d="M0 0 C3.3 0 6.6 0 10 0 C9.67 1.32 9.34 2.64 9 4 C8.01 4.495 8.01 4.495 7 5 C7 4.34 7 3.68 7 3 C5.824375 2.814375 5.824375 2.814375 4.625 2.625 C2 2 2 2 0 0 Z " fill="#595858" transform="translate(848,568)"/>
<path d="M0 0 C2.0625 0.4375 2.0625 0.4375 4 1 C3.67 2.65 3.34 4.3 3 6 C1.68 5.67 0.36 5.34 -1 5 C-1 1 -1 1 0 0 Z " fill="#6C6B6B" transform="translate(985,557)"/>
<path d="M0 0 C-0.33 0.99 -0.66 1.98 -1 3 C-1.99 3.33 -2.98 3.66 -4 4 C-4.33 4.99 -4.66 5.98 -5 7 C-5.99 6.67 -6.98 6.34 -8 6 C-7.67 5.01 -7.34 4.02 -7 3 C-7.66 2.67 -8.32 2.34 -9 2 C-5.62902617 0.50178941 -3.79557881 0 0 0 Z " fill="#9E7325" transform="translate(356,513)"/>
<path d="M0 0 C0.33 0 0.66 0 1 0 C1.33 4.29 1.66 8.58 2 13 C1.01 13 0.02 13 -1 13 C-1.02686553 11.02090602 -1.04633375 9.04171029 -1.0625 7.0625 C-1.07410156 5.96035156 -1.08570313 4.85820313 -1.09765625 3.72265625 C-1 1 -1 1 0 0 Z " fill="#C88E1F" transform="translate(482,529)"/>
<path d="M0 0 C3.3 0 6.6 0 10 0 C10.33 0.99 10.66 1.98 11 3 C9.54257537 3.08096803 8.08387193 3.13917774 6.625 3.1875 C5.81289063 3.22230469 5.00078125 3.25710938 4.1640625 3.29296875 C3.44992187 3.19628906 2.73578125 3.09960938 2 3 C1.34 2.01 0.68 1.02 0 0 Z " fill="#965C04" transform="translate(389,474)"/>
<path d="M0 0 C0.99 0 1.98 0 3 0 C2.34 2.97 1.68 5.94 1 9 C0.67 8.01 0.34 7.02 0 6 C-0.66 6 -1.32 6 -2 6 C-1.125 1.125 -1.125 1.125 0 0 Z " fill="#626161" transform="translate(842,577)"/>
<path d="M0 0 C4.95 0.99 4.95 0.99 10 2 C10 2.66 10 3.32 10 4 C6.7 4 3.4 4 0 4 C0 2.68 0 1.36 0 0 Z " fill="#4C4C4C" transform="translate(992,587)"/>
<path d="M0 0 C-1.5 2 -1.5 2 -4 4 C-6.75871627 4.35800135 -9.20097524 4.18660165 -12 4 C-12 3.67 -12 3.34 -12 3 C-10.02 2.67 -8.04 2.34 -6 2 C-6.99 1.34 -7.98 0.68 -9 0 C-2.25 -1.125 -2.25 -1.125 0 0 Z " fill="#7A7A7A" transform="translate(746,588)"/>
<path d="M0 0 C0.80050781 0.03480469 1.60101562 0.06960938 2.42578125 0.10546875 C3.63814453 0.14607422 3.63814453 0.14607422 4.875 0.1875 C5.48988281 0.22230469 6.10476563 0.25710938 6.73828125 0.29296875 C6.73828125 1.28296875 6.73828125 2.27296875 6.73828125 3.29296875 C2.77828125 3.29296875 -1.18171875 3.29296875 -5.26171875 3.29296875 C-2.26171875 0.29296875 -2.26171875 0.29296875 0 0 Z " fill="#8E8E8E" transform="translate(1174.26171875,571.70703125)"/>
<path d="M0 0 C0.66 0.66 1.32 1.32 2 2 C2.66 1.67 3.32 1.34 4 1 C3.25 6.75 3.25 6.75 1 9 C-1 6 -1 6 -0.625 2.8125 C-0.41875 1.884375 -0.2125 0.95625 0 0 Z " fill="#A47924" transform="translate(324,516)"/>
<path d="M0 0 C2 2 2 2 2.125 5.625 C2.08375 6.73875 2.0425 7.8525 2 9 C0.68 9.33 -0.64 9.66 -2 10 C-1.34 6.7 -0.68 3.4 0 0 Z " fill="#AC7107" transform="translate(441,407)"/>
<path d="M0 0 C-0.875 3.875 -0.875 3.875 -2 5 C-3.51928038 5.07179964 -5.04167482 5.08392007 -6.5625 5.0625 C-7.38878906 5.05347656 -8.21507812 5.04445313 -9.06640625 5.03515625 C-9.70449219 5.02355469 -10.34257813 5.01195312 -11 5 C-11 4.67 -11 4.34 -11 4 C-8.36 4 -5.72 4 -3 4 C-3 3.34 -3 2.68 -3 2 C-4.65 2 -6.3 2 -8 2 C-8 1.67 -8 1.34 -8 1 C-2.25 0 -2.25 0 0 0 Z " fill="#858686" transform="translate(976,587)"/>
<path d="M0 0 C0.33 1.32 0.66 2.64 1 4 C-0.43359375 6.140625 -0.43359375 6.140625 -2.4375 8.25 C-3.09621094 8.95640625 -3.75492187 9.6628125 -4.43359375 10.390625 C-5.20896484 11.18726563 -5.20896484 11.18726563 -6 12 C-6.66 11.67 -7.32 11.34 -8 11 C-5.36 7.37 -2.72 3.74 0 0 Z " fill="#224D2E" transform="translate(390,558)"/>
<path d="M0 0 C0.07427838 3.34252724 0.06546953 5.8035914 -1 9 C-0.01 9.66 0.98 10.32 2 11 C0.35 10.67 -1.3 10.34 -3 10 C-3 7.03 -3 4.06 -3 1 C-1 0 -1 0 0 0 Z " fill="#595958" transform="translate(716,580)"/>
<path d="M0 0 C0.33 0.99 0.66 1.98 1 3 C-0.18244247 4.53397943 -1.37312242 6.06670203 -2.67578125 7.5 C-4.21271929 9.17302042 -4.21271929 9.17302042 -6 12 C-5.59791618 6.37082652 -3.71069698 3.99613521 0 0 Z " fill="#43754D" transform="translate(704,500)"/>
<path d="M0 0 C0.33 0 0.66 0 1 0 C1 1.65 1 3.3 1 5 C1.66 5 2.32 5 3 5 C3 6.65 3 8.3 3 10 C1.68 9.67 0.36 9.34 -1 9 C-0.67 6.03 -0.34 3.06 0 0 Z " fill="#585758" transform="translate(831,575)"/>
<path d="M0 0 C2.64 0 5.28 0 8 0 C8.33 1.65 8.66 3.3 9 5 C6.69 4.67 4.38 4.34 2 4 C3.32 3.34 4.64 2.68 6 2 C3.03 1.505 3.03 1.505 0 1 C0 0.67 0 0.34 0 0 Z " fill="#817F80" transform="translate(968,567)"/>
<path d="M0 0 C3.03336186 -0.22893297 5.97465051 -0.36475845 9 0 C11.0625 2 11.0625 2 12 4 C11.01 3.67 10.02 3.34 9 3 C8.34 3.66 7.68 4.32 7 5 C6.67 3.68 6.34 2.36 6 1 C4.02 1 2.04 1 0 1 C0 0.67 0 0.34 0 0 Z " fill="#575757" transform="translate(822,568)"/>
<path d="M0 0 C0.99 0.33 1.98 0.66 3 1 C3 1.99 3 2.98 3 4 C5.97 4 8.94 4 12 4 C12 4.33 12 4.66 12 5 C10.37509046 5.02698189 8.75005367 5.04638757 7.125 5.0625 C5.76761719 5.07990234 5.76761719 5.07990234 4.3828125 5.09765625 C2 5 2 5 0 4 C0 2.68 0 1.36 0 0 Z " fill="#7F7F7F" transform="translate(690,587)"/>
<path d="M0 0 C0.763125 0.0825 1.52625 0.165 2.3125 0.25 C1.9825 1.24 1.6525 2.23 1.3125 3.25 C-0.9975 3.58 -3.3075 3.91 -5.6875 4.25 C-3.34903846 0.31153846 -3.34903846 0.31153846 0 0 Z " fill="#5C5B5B" transform="translate(877.6875,567.75)"/>
<path d="M0 0 C1.670625 0.061875 1.670625 0.061875 3.375 0.125 C3.375 1.115 3.375 2.105 3.375 3.125 C0.405 2.795 -2.565 2.465 -5.625 2.125 C-3.625 0.125 -3.625 0.125 0 0 Z " fill="#9A9A9A" transform="translate(603.625,571.875)"/>
<path d="M0 0 C1.65 0 3.3 0 5 0 C4.01 0.495 4.01 0.495 3 1 C2.31527335 2.88764903 2.31527335 2.88764903 1.875 5.0625 C1.70742188 5.79597656 1.53984375 6.52945313 1.3671875 7.28515625 C1.24601563 7.85105469 1.12484375 8.41695312 1 9 C0.67 9 0.34 9 0 9 C0 6.03 0 3.06 0 0 Z " fill="#808080" transform="translate(794,558)"/>
<path d="M0 0 C0.99 0.99 1.98 1.98 3 3 C2.67 3.99 2.34 4.98 2 6 C2 5.34 2 4.68 2 4 C0.35 4.66 -1.3 5.32 -3 6 C-3 4.68 -3 3.36 -3 2 C-2.01 1.34 -1.02 0.68 0 0 Z " fill="#686868" transform="translate(765,585)"/>
<path d="M0 0 C0.66 0.66 1.32 1.32 2 2 C0.02 4.31 -1.96 6.62 -4 9 C-4.66 8.67 -5.32 8.34 -6 8 C-4.02 5.36 -2.04 2.72 0 0 Z " fill="#C29434" transform="translate(1053,471)"/>
<path d="M0 0 C3.3 0.33 6.6 0.66 10 1 C10 1.33 10 1.66 10 2 C7.69 2 5.38 2 3 2 C3 2.66 3 3.32 3 4 C2.01 4 1.02 4 0 4 C0 2.68 0 1.36 0 0 Z " fill="#919191" transform="translate(1076,587)"/>
<path d="M0 0 C0 0.99 0 1.98 0 3 C-2.64 3.33 -5.28 3.66 -8 4 C-4.5 0 -4.5 0 0 0 Z " fill="#717172" transform="translate(723,588)"/>
<path d="M0 0 C2.31 0.33 4.62 0.66 7 1 C7 1.33 7 1.66 7 2 C1.375 4 1.375 4 -2 4 C-1.34 2.68 -0.68 1.36 0 0 Z " fill="#565555" transform="translate(1032,568)"/>
<path d="M0 0 C2.31 0 4.62 0 7 0 C6.67 0.66 6.34 1.32 6 2 C3.67843403 2.40729228 1.3431213 2.74438677 -1 3 C-0.67 2.01 -0.34 1.02 0 0 Z " fill="#525152" transform="translate(968,568)"/>
<path d="M0 0 C0.99 0 1.98 0 3 0 C3 1.32 3 2.64 3 4 C0.03 3.67 -2.94 3.34 -6 3 C-6 2.67 -6 2.34 -6 2 C-4.02 2 -2.04 2 0 2 C0 1.34 0 0.68 0 0 Z " fill="#7D7D7E" transform="translate(704,568)"/>
<path d="M0 0 C0.99 0 1.98 0 3 0 C3 1.98 3 3.96 3 6 C2.01 6 1.02 6 0 6 C0 4.02 0 2.04 0 0 Z " fill="#4D4C4C" transform="translate(770,557)"/>
<path d="M0 0 C0.66 1.32 1.32 2.64 2 4 C0.35 5.32 -1.3 6.64 -3 8 C-2.67 6.35 -2.34 4.7 -2 3 C-1.34 3 -0.68 3 0 3 C0 2.01 0 1.02 0 0 Z " fill="#A97825" transform="translate(480,540)"/>
<path d="M0 0 C-2.39509338 2.89932357 -4.31245243 3.50168276 -8 4 C-7 1 -7 1 -5.125 -0.25 C-3 -1 -3 -1 0 0 Z " fill="#9E6A0A" transform="translate(359,515)"/>
<path d="M0 0 C-0.33 2.31 -0.66 4.62 -1 7 C-1.66 7 -2.32 7 -3 7 C-3 5.02 -3 3.04 -3 1 C-1 0 -1 0 0 0 Z " fill="#946925" transform="translate(318,485)"/>
<path d="M0 0 C0.66 0.33 1.32 0.66 2 1 C0.625 3 0.625 3 -1 5 C-1.66 5 -2.32 5 -3 5 C-3 6.65 -3 8.3 -3 10 C-3.33 10 -3.66 10 -4 10 C-4.25 7.25 -4.25 7.25 -4 4 C-2 1.625 -2 1.625 0 0 Z " fill="#A88841" transform="translate(497,429)"/>
<path d="M0 0 C1.4606285 2.64738916 2 3.89448334 2 7 C1.01 7 0.02 7 -1 7 C-1.33 5.35 -1.66 3.7 -2 2 C-1.34 2 -0.68 2 0 2 C0 1.34 0 0.68 0 0 Z " fill="#A47A2B" transform="translate(489,415)"/>
</svg>
